<?xml version="1.0" encoding="utf-8"?>
<!-- Generator: Adobe Illustrator 20.0.0, SVG Export Plug-In . SVG Version: 6.00 Build 0)  -->
<svg version="1.1" id="Layer_1" xmlns="http://www.w3.org/2000/svg" xmlns:xlink="http://www.w3.org/1999/xlink" x="0px" y="0px"
	 viewBox="0 0 600 720" style="enable-background:new 0 0 600 720;" xml:space="preserve">
<style type="text/css">
	.st0{fill:none;stroke:#12719E;stroke-miterlimit:10;}
</style>
<g>
	<polygon class="st0" points="15.3,93.4 15.4,93.4 15.3,93.4 15.3,93.4 15.3,93.4 	"/>
	<polygon class="st0" points="430.1,657.3 430.1,657.3 430.1,657.3 430.1,657.3 430.1,657.3 430.1,657.3 	"/>
	<polygon class="st0" points="437.9,105.4 438,105.3 437.9,105.4 437.9,105.4 437.9,105.4 437.9,105.4 437.9,105.4 	"/>
	<polygon class="st0" points="435.6,95 435.8,95.1 435.6,95 435.6,95 435.6,95 435.6,95 435.6,95 	"/>
	<polygon class="st0" points="599.8,456.6 598.1,441.3 598.1,441.3 596.6,435.8 593.3,425.8 590,415.8 587.5,409.3 583.3,399 
		579.1,388.7 579,387.9 579,387 570.8,362.8 568.9,358.7 567.1,354.6 567.1,354.6 567.1,354.6 566.6,353.6 566.2,352.7 566.2,352.6 
		566.2,352.5 565.9,352 565.7,351.5 565.7,351.5 565.7,351.4 562.9,345.8 560.2,340.2 560.2,340.2 560.2,340.1 559.6,339 
		559.1,337.9 559.1,337.8 559.1,337.8 559,337.8 559,337.8 559,337.5 558.9,337.3 558.9,337.3 558.8,337.2 558.8,337.2 558.8,337.1 
		558.8,337.1 558.8,337.1 558.7,336.9 558.6,336.7 558.6,336.7 558.6,336.7 555.6,326.1 555.5,326 555.5,325.9 555.5,325.8 
		555.2,324 555.1,323.9 554.6,321.3 554.6,321.2 555.3,304.7 556.6,303.3 556.6,303.3 556.7,303.2 556.8,303.1 556.9,303.1 
		558.5,301.3 559.3,298.2 557.1,291.6 554.9,285 545.9,271.1 536.8,257.1 513.4,210.4 513.7,210.4 495.3,150.3 491.9,135.9 
		492.1,135.9 492.2,121.9 489.6,118.5 489.3,118.4 487.7,99.6 487.7,99.5 487.8,98.8 488.2,98.4 488.3,98.4 490,95.3 489.9,94.3 
		476.8,92.7 463.7,91.1 464.1,91 464.6,90.9 464.6,91.3 464.7,91.7 459.9,89.5 455,87.3 455,87.6 455,87.8 449.5,86 444.1,84.1 
		444.2,84.1 444.3,84 441.1,85.5 437.9,87 438,87 438,86.9 436.7,92.8 435.3,98.6 435.2,98.4 435.5,99.4 435.3,99.4 435.8,100.7 
		435.8,100.6 436.5,102.4 436.7,102.1 438.3,105.9 438.2,105.9 438.3,106.3 438.3,106.2 438.4,106.5 438.3,106.4 438.3,107.5 
		438.5,107.5 438.2,107.8 438.1,107.6 437.6,110.8 437.5,110.7 437.4,111.5 437.6,111.4 437.5,114.7 437.4,114.6 436.2,118.5 
		436.2,118.4 435.6,119.2 435.8,119.1 435.6,120.9 435.5,120.8 435.4,121 435.6,120.9 435.7,124.6 435.8,124.5 435.8,124.8 
		435.8,124.8 435.2,125.3 435.4,125.4 428.6,125.3 428.7,125.4 422.7,121.9 422.8,121.9 422.8,121.8 422.9,121.8 422.6,121.5 
		422.7,121.5 422.6,120.6 422.5,120.6 422.5,120.4 422.4,120.4 422.4,120.4 422.5,120.4 422.5,120.3 422.6,120.3 422.4,119.6 
		422.4,119.6 422.4,119.3 422.4,119.3 422.4,119.2 422.4,119.2 422.4,119.1 422.4,119.1 422.4,119 422.5,119 422.5,119.1 
		422.6,118.8 422.6,118.8 422.6,116.5 422.7,116.5 422.7,116.2 422.6,116.2 422.6,116.1 422.7,116.1 422.7,115.9 422.8,115.9 
		422.8,115.7 422.9,115.7 422.9,115.5 423,115.5 422.5,113.5 422.4,113.6 422.4,113.5 422.4,113.5 422.4,113.4 422.3,113.4 
		422.3,113.4 422.3,113.4 422.3,113.2 422.2,113.2 422.2,113.1 422.3,113.1 422.1,107 416,106.4 416,106.3 415.4,106.2 412.9,106.1 
		410.4,105.9 410.4,105.8 410.3,105.8 410.1,105.8 409.8,105.8 409.7,105.8 409.6,105.7 409.3,105.7 409,105.7 408.9,105.7 
		408.9,105.7 408.6,105.7 408.2,105.7 408.2,105.7 408.1,105.6 407.1,105.6 406.2,105.5 313.8,97.6 221.4,89.7 220,89.6 218.7,89.5 
		218.7,89.5 218.7,89.4 217.5,89.4 212.7,85.4 212.7,85.5 210.8,81.1 210.9,81.1 210.6,79.9 210.6,79.9 210.6,79.8 210.5,79.8 
		210.5,75.4 210.6,75.4 210.6,75.4 210.7,75.4 210.4,73.9 210.5,73.9 210.5,73.8 210.6,73.8 205.8,62.9 205.8,62.9 205.8,62.6 
		203.6,62.5 203.6,62.5 194.3,62.2 100.8,57.8 7.3,53.4 3.6,70 3.6,70 9.4,78.3 9.3,78.4 11.6,80.1 11.6,80.1 11.7,80.2 11.6,80.3 
		15.4,82.6 15.4,82.6 16.4,90.3 16.5,90.2 15.7,92.7 15.7,92.6 13.5,95.6 13.5,95.5 13.4,96.5 13.1,96.3 13.1,96.7 13,96.5 
		12.9,96.9 12.9,96.7 18.4,104.3 18.5,104.4 18.6,104.5 18.7,104.7 18.7,104.9 18.7,105.1 18.7,105.3 18.7,105.4 18.7,105.5 
		18.5,105.7 18.4,105.8 6,118.5 5.9,121 5.8,123.4 13.6,122.3 21.4,121.1 22.4,120.8 23.4,120.5 23.8,120.5 24.1,120.6 25.3,121 
		26.4,121.5 50.6,119 74.8,116.5 78.9,117.2 83,117.9 87.2,118.4 90.7,118.9 94.3,119.4 109.6,125.2 124.9,131 125.1,131.1 
		125.3,131.2 125.3,131.2 125.4,131.3 125.6,131.3 125.8,131.4 133.4,136.8 141,142.2 167.3,161.2 166.6,161.8 166.2,162.3 
		166.2,162.3 166,162.6 165.9,162.6 165.9,162.8 165.7,163 165.7,163.1 165.6,163.4 165.6,163.4 165.5,163.5 165.1,164.8 
		165.6,174.7 165.6,174.8 166.5,178.8 166.6,178.9 166.6,179 166.8,179.4 166.8,179.5 167.1,180.2 167.1,180.4 167.4,181.3 
		167.4,181.4 169.3,184.8 169.5,185 169.8,185.4 169.8,185.4 170.4,186.3 170.5,186.3 170.5,186.4 170.6,186.4 170.7,186.5 
		170.7,186.6 170.8,186.9 171,187 171,187.1 171.7,187.7 171.7,187.7 173.5,188.4 173.8,188.4 174,188.5 175.9,188.2 178.3,186.3 
		178.3,186.3 178.5,186 180,186.1 180.2,186.3 181.8,186.6 181.9,186.7 181.9,186.7 181.9,186.7 182.1,186.7 182.1,186.8 183,186.8 
		183.1,186.9 184.5,187.5 184.6,187.6 184.7,187.6 192.6,192.1 192.6,192.2 192.7,192.2 193.8,193.6 193.8,193.6 195.4,195 
		196.6,195.4 199.1,195.1 199.4,194.9 199.5,194.9 200.4,194.3 200.4,194.4 200.7,194.4 200.8,194.4 210.1,191 210.3,190.7 
		220.3,186.5 238.9,174.8 240.6,169.9 243,169.8 245.8,167.7 254.2,169 257,167.7 258,166.6 257.8,166.6 260.6,161.5 261.1,156.4 
		266.8,157 271.6,155.1 272.8,153.1 278,152.1 280.9,154.7 281.4,154.7 281.4,154.8 299.9,165.6 300,165.6 312.3,184.6 316.5,186.5 
		317.6,188.9 320.4,190.4 321.3,190.4 322.7,191.9 322.7,197.7 322.7,197.7 323.9,204.6 330.5,208.7 331.8,211.7 334.5,213.1 
		336.3,217.4 339.9,219.9 348.5,242.8 357.2,244.1 358.4,243.5 358.4,243.6 362.4,241.4 368.4,244.4 368.5,244.3 369,244.3 
		370.1,248.4 369.8,248.4 370.6,250.9 369.5,254 370.5,256.8 373.4,258.5 374.4,261.5 374.4,261.5 374.3,262.6 374.1,262.6 
		372.8,265.6 374.6,273 374.5,273.1 375.5,276.3 375.5,276.3 377.4,299 373.5,306.3 373.5,306.3 373.4,306.5 373.4,306.6 
		373.4,306.6 373.4,306.6 373.4,306.7 373.4,306.8 373.3,306.9 373.3,306.9 373.3,307.9 373.6,312 373.2,312.3 371.6,315.4 
		371.6,315.7 367.4,315.7 365.1,317.9 364.7,327.7 365.6,329.3 365.3,333.3 366.5,335.2 366.6,335.2 366,337 366.1,337.1 
		364.5,353.7 366.3,357.3 366.3,357.3 366.5,357.7 366.5,357.8 372,365.6 372.1,367 371.1,370.5 371.4,372.2 370.4,377.7 371,381.3 
		374.4,385.9 374.4,385.9 375.2,387.2 375.2,387.2 385.5,403.4 396.5,427.4 402.6,437.8 408.6,448.2 408.7,448.8 408.8,449.4 
		408.9,449.5 408.9,449.6 408.9,449.6 408.9,449.6 409.1,450.1 409.3,450.6 409.6,450.9 409.9,451.3 410,452.2 410.1,453.2 
		410.1,453.2 410,453.3 410,453.4 410,453.4 410.1,453.9 410.2,454.5 410.2,454.5 410.2,454.6 410.1,454.9 410,455.2 409.6,460.1 
		412.1,464.4 412.2,464.4 417.2,478.7 421.7,481.5 421.7,481.5 425.9,486.6 429.2,487.6 432.6,486.6 432.6,486.6 437.5,485.1 
		438.3,485.6 438.4,485.6 440.4,487.3 451.7,523.7 451.2,525.6 452,528.2 452.9,529.2 454.1,532.8 454.1,532.8 460.8,542.3 
		465.9,542.1 467.8,540.9 468.9,538.8 473.4,541.1 473.7,541.1 477.9,544.4 478.4,544.5 478.9,544.5 479,544.6 479.1,544.7 
		479.3,544.9 479.4,545 479.7,545.1 480,545.2 480.3,545.3 480.6,545.3 480.6,545.4 480.6,545.5 481.2,546.8 481.7,548 497.9,571.3 
		498.1,571.3 518.6,623.9 523.9,624.9 525.2,624.1 526.1,625.1 525.9,625.7 517,629.5 517,629.3 511.6,631.3 511,630.8 511,630.7 
		509.6,629.8 509.6,629.8 467.8,630.1 467.8,630.1 464.2,632.7 464.2,632.8 432.3,647.6 431.5,647.2 431.5,647.1 423.2,644.7 
		416.7,649.7 416.4,653.3 420,657.2 419.9,657.2 428.9,655.1 430.2,657.3 430.1,657.3 436.5,660 435.9,662.3 437.8,665.9 
		451.8,662.9 451.7,657.9 451.6,657.9 451.6,657.9 451.5,657.8 453.3,657.8 454.5,662.7 455.8,663.5 473.3,657.6 473.3,657.5 
		473.6,657.5 473.4,652.7 489,650 489.1,649.9 500,645.9 500.1,645.7 504.8,644.1 504.9,644.2 504.9,644.3 505,644.3 505,644.3 
		517,642.2 517,642.3 563.5,612.2 563.4,612.2 573.1,600.8 573.2,600.8 573.2,600.8 573.1,600.8 574.6,597.4 578.1,596.3 
		579.9,590.3 579,589 581,585.4 585.1,585.1 589.9,576.9 587.2,572.7 588.6,567.9 588.4,567.4 588.8,566.7 588.9,566.7 589.3,563 
		593.4,562.3 595.3,558.6 593.8,555.3 590.2,554.2 591.4,547.1 593,530.2 594,521.6 595,512.9 595,512.9 595.1,512.9 596.7,494.8 
		598.4,476.6 599.8,456.6 599.8,456.6 599.8,456.6 599.8,456.6 599.8,456.6 599.8,456.6 599.8,456.6 599.8,456.6 599.8,456.6 
		599.8,456.6 599.8,456.6 599.8,456.6 599.8,456.6 599.8,456.6 599.8,456.6 599.8,456.6 599.8,456.6 599.8,456.6 599.8,456.6 
		599.8,456.6 599.8,456.6 599.8,456.6 599.8,456.6 599.8,456.6 599.8,456.6 599.8,456.6 599.8,456.6 599.8,456.6 599.8,456.6 
		599.8,456.6 	"/>
</g>
</svg>
