<?xml version="1.0" encoding="utf-8"?>
<!-- Generator: Adobe Illustrator 20.0.0, SVG Export Plug-In . SVG Version: 6.00 Build 0)  -->
<svg version="1.1" id="Layer_1" xmlns="http://www.w3.org/2000/svg" xmlns:xlink="http://www.w3.org/1999/xlink" x="0px" y="0px"
	 viewBox="0 0 600 720" style="enable-background:new 0 0 600 720;" xml:space="preserve">
<style type="text/css">
	.st0{fill:none;stroke:#12719E;stroke-miterlimit:10;}
</style>
<g>
	<polygon class="st0" points="15.3,93.4 15.4,93.4 15.4,93.4 15.3,93.4 15.3,93.4 	"/>
	<polygon class="st0" points="430.1,657.3 430.1,657.3 430.1,657.3 430.1,657.3 430.1,657.3 	"/>
	<polygon class="st0" points="437.9,105.4 438,105.4 438,105.3 437.9,105.4 437.9,105.4 437.9,105.4 	"/>
	<polygon class="st0" points="435.6,95 435.6,95.1 435.8,95.1 435.7,95 435.6,95 435.6,95 	"/>
	<polygon class="st0" points="599.8,456.6 598.1,441.3 598.1,441.3 576.2,380.3 576.1,380.2 570.9,362.8 570.8,362.8 560.2,340.2 
		560.2,340.1 559.1,337.9 559.1,337.8 559,337.8 558.8,337.2 558.8,337.1 555.6,326.1 555.5,326 555.5,325.9 555.5,325.8 555.2,324 
		555.1,323.9 554.6,321.3 554.6,321.2 555.3,304.7 556.6,303.3 556.6,303.3 556.7,303.2 556.8,303.1 556.9,303.1 558.5,301.3 
		559.3,298.2 536.8,257.1 536.8,257.1 535.7,255.3 535.7,255.3 535.7,255.2 528,241.9 528,241.8 526.9,240 526.9,239.9 513.4,210.4 
		513.7,210.4 505.5,189.9 505.4,189.9 503.2,182.6 503.1,182.6 491.9,135.9 492.1,135.9 490.7,126.1 490.9,126.1 492.1,123.2 
		491.9,121.1 489.6,118.5 489.3,118.4 487.7,99.6 487.7,99.5 487.8,98.8 488.2,98.4 488.3,98.4 490,95.3 489.9,94.3 485.4,94.3 
		485.4,94.5 480.7,94.4 480.6,94.3 480.3,94.3 480.1,94.1 480,94.1 479.4,93.5 479.4,93.4 479.3,93.3 479.3,93.3 479.3,93.2 
		479.2,93.2 479.2,93.1 479.1,93.1 479.1,93 479,93 479,93 478.1,93.1 478,93.2 477.8,93.2 477.5,93.3 477.2,93.3 477.1,93.4 
		476.9,93.4 476.8,93.3 475.4,93.2 475.4,93.2 475.4,93.2 475.4,93.3 475.3,93.3 475.3,93.6 475.2,93.7 475.3,93.7 475.3,94.4 
		475.1,94.6 474.9,94.6 474.9,94.5 474.8,94.5 474.6,94.4 474.6,94.3 474.6,94.3 474.5,94.3 474.5,94.2 474.5,94.1 474.5,94 
		474.4,94 474.4,93.8 474.3,93.7 474,93.7 473.9,93.8 473.9,93.8 473.7,93.9 473.7,94 473.7,94 473.7,94 473.6,94 473.6,94.1 
		473.6,94.1 473.6,94.1 473.5,94.2 473.4,94.2 473.3,94.3 473.1,94.3 473.1,94.2 473,94.2 473,93.7 472.9,93.7 472.9,93.7 
		472.7,93.7 472.7,93.6 472.6,93.6 472.4,93.4 472.4,93.4 472.3,93.4 472.2,93.4 472.2,93.3 471.6,93.3 471.6,93.2 471.4,93.2 
		471.3,93.2 471.2,93.2 471.1,93.2 471,93.2 471,93.3 471,93.3 470.9,93.4 470.9,93.4 470.8,93.5 470.8,93.6 470.7,93.6 470.7,93.7 
		470.4,93.7 470.4,93.6 470.4,93.6 470.4,93.4 470.4,93.2 470.4,93.2 470.5,93.1 470.5,92.9 470.4,92.9 470.4,92.8 470.4,92.8 
		470.4,92.7 470.3,92.7 470.3,92.7 469.9,92.7 469.8,92.7 469.8,92.7 469.8,92.8 469.7,92.9 469.7,93.7 469.7,93.7 469.7,93.8 
		469.6,93.8 469.6,93.8 469.5,93.9 469.4,93.9 469.4,93.8 469.3,93.8 469.2,93.8 469.2,93.7 469.2,93.7 469.2,93.5 469.1,93.4 
		469.1,93.4 469.1,93.3 468.5,93.3 468.5,93.2 468.4,93.2 468.4,93.2 468.3,93.2 468.3,93 468.4,93 468.4,92.9 468.5,92.8 
		468.5,92.8 468.5,92.7 468.6,92.6 468.6,92.4 468.5,92.4 468.5,92.3 468.5,92.2 468.5,92.2 468.4,92.2 468.3,92.1 468.3,92.1 
		468.3,92 468.1,92 468,92.1 468,92.1 468,92.1 467.9,92.1 467.9,92.7 467.9,92.7 467.8,92.8 467.7,92.8 467.7,92.7 467.6,92.7 
		467.6,92.7 467.6,92.5 467.5,92.4 467.5,92.3 467.4,92.3 467.4,92.2 467.3,92.2 467.1,92.4 467.1,92.5 467,92.6 467,92.7 
		466.9,92.7 466.9,92.7 466.8,92.7 466.7,92.8 466.5,92.8 466.5,92.9 466.4,92.8 466.2,92.8 466.1,92.7 466.1,92.7 466.1,92.6 
		466,92.6 466,92.4 465.9,92.4 465.9,92.2 466,92.1 466,92 466.1,91.9 466.1,91.8 466.1,91.8 466.1,91.7 466.2,91.7 466.2,91.6 
		466.1,91.5 466.1,91.4 466.1,91.4 466.1,91.3 466,91.3 466,91.3 465.9,91.3 465.8,91.3 465.8,91.3 465.6,91.4 465.6,91.4 
		465.5,91.4 465.3,91.4 465.3,91.4 465.3,91.3 465.2,91.3 465.2,91.1 465.3,91.1 465.3,91.1 465.3,91.1 465.3,91 465.4,91 465.4,91 
		465.5,91 465.5,90.9 465.5,90.9 465.5,90.6 465.5,90.5 465.5,90.5 465.4,90.5 465.4,90.4 465.3,90.4 465.3,90.3 465.2,90.3 
		465.2,90.4 465.1,90.4 465.1,90.5 465,90.5 464.9,90.6 464.7,90.6 464.7,90.7 464,90.7 464,90.7 463.9,90.7 463.8,90.8 463.7,90.8 
		463.7,91.1 463.8,91.2 463.8,91.2 463.9,91.3 464,91.3 464,91.2 464.1,91.2 464.1,91.1 464.2,91.1 464.4,90.9 464.6,90.9 464.6,91 
		464.6,91 464.7,91 464.7,91.1 464.7,91.1 464.7,91.1 464.8,91.1 464.8,91.6 464.6,91.8 464.3,91.8 464.3,91.7 464.2,91.6 
		464.1,91.6 464.1,91.6 464,91.6 464,91.5 463.2,91.5 463.2,91.4 463.1,91.4 463.1,91.4 463.1,91.4 463.1,91.1 463,91.1 463,91 
		462.9,91 462.9,90.9 462.8,90.9 462.7,91 462.6,91 462.6,91 462.5,91 462.3,91.1 462,91.1 462,91.1 461.9,91.1 461.9,91 461.4,91 
		461.4,91 461.4,91 461.3,91.1 461.1,91.1 461.1,91.1 461.1,91.1 461,91.2 460.9,91.2 460.9,91.3 460.8,91.2 460.8,91.2 460.7,91.1 
		460.6,91.1 460.6,91 460.5,91 460.5,91.1 460.4,91.1 460.4,91 460.2,91 460.1,90.9 460.1,90.9 460.1,90.8 460,90.8 459.9,90.8 
		459.9,90.8 459.9,90.7 459.8,90.7 459.8,90.5 459.9,90.5 459.9,90.5 459.9,90.4 459.9,90.3 459.9,90.3 459.8,90.2 459.7,90.2 
		459.6,90.2 459.5,90.2 459.5,90.1 459.5,90.1 459.4,90 459.3,90 459.2,89.9 459.1,89.9 459.1,89.9 459,89.8 459.1,89.7 459.1,89.7 
		459.3,89.5 459.3,89.4 459.2,89.3 459.1,89.3 459,89.2 458.9,89.2 458.8,89.2 458.4,89.2 458.2,89.1 458.1,89.1 458.1,89 458,89 
		458,88.9 458,88.9 457.8,88.9 457.8,88.8 457.8,88.7 457.8,88.7 457.7,88.6 457.7,88.4 457.7,88.4 457.7,88.4 457.3,88.4 
		457.3,88.3 457.1,88.3 457.1,88.3 456.9,88.3 456.9,88.3 456.8,88.3 456.8,88.4 456.9,88.4 456.9,88.4 456.9,88.5 456.9,88.6 
		456.8,88.7 456.8,88.7 456.8,88.7 456.8,89 456.7,89 456.7,89.1 456.6,89.1 456.7,89.2 456.7,89.2 456.8,89.2 456.8,89.3 
		456.8,89.3 456.8,89.5 456.4,89.5 456.3,89.6 455.9,89.7 455.9,89.6 455.9,89.5 455.9,89.5 455.9,89.4 456,89.4 456,89.2 
		455.9,89.2 455.7,89 455.7,89 455.7,88.9 455.6,88.9 455.6,88.9 455.7,88.9 455.7,88.8 455.7,88.8 455.8,88.7 455.9,88.7 
		455.9,88.5 455.8,88.5 455.7,88.3 455.7,88.3 455.6,88.3 455.6,88.2 455.5,88.1 455.5,88 455.4,88 455.4,88 455.3,87.8 455.3,87.7 
		455.3,87.7 455.3,87.6 455.2,87.6 455.2,87.3 455,87.3 455,87.4 455,87.4 454.8,87.5 454.8,87.6 454.9,87.7 454.9,87.8 455,87.8 
		455,87.8 454.8,87.8 454.7,87.7 454.7,87.6 454.6,87.6 454.5,87.6 454.5,87.5 454.5,87.4 454.5,87.3 454.4,87.3 454.2,87.2 
		454.2,87.2 454.2,87.1 454.1,87.1 454.1,87 453.7,87 453.6,87.1 453,87.1 452.8,87.3 452.7,87.3 452.7,87.3 452.6,87.2 452.6,87.2 
		452.4,87.2 452.4,87.1 452.3,87.1 452.2,87.2 452,87.2 452,87.2 451.8,87.2 451.8,87.3 451.8,87.3 451.7,87.3 451.4,87.3 
		451.4,87.2 451.4,87.2 451.5,87 451.5,87 451.5,86.8 451.4,86.8 451.3,87 451,87 450.9,86.9 450.9,86.9 450.7,86.8 450.7,86.7 
		450.6,86.7 450.6,86.7 450.6,86.6 450.5,86.6 450.4,86.7 449.6,86.7 449.6,86.7 449.4,86.7 449.4,86.8 449.3,86.8 449.2,86.7 
		449.1,86.7 449.1,86.3 449,86.3 448.8,86.2 448.7,86.2 448.7,86.1 448.2,86.1 448.2,85.9 448.2,85.9 448.2,85.6 448.2,85.6 
		448.2,85.6 448.1,85.6 448.1,85.5 448.1,85.5 448.1,85.1 448,85.1 447.9,85 447.8,85 447.8,84.9 447.8,84.9 447.6,84.8 447.6,84.8 
		447.6,84.8 447.6,84.7 447.5,84.6 447.5,84.5 447.6,84.5 447.6,84.4 447.5,84.3 447.5,84.1 447.6,84.1 447.6,84 447.4,83.8 
		447.3,83.8 447.2,83.8 447.2,83.8 447.1,83.8 447.1,83.7 447,83.7 446.9,83.6 446.9,83.5 446.9,83.5 446.8,83.5 446.8,83.4 
		446.7,83.4 446.7,83.5 446.6,83.5 446.6,83.5 446.4,83.5 446.4,83.6 446.4,83.6 446.4,83.7 446.3,83.7 446.3,84 446.5,84.1 
		446.5,84.2 446.6,84.2 446.6,84.4 446.5,84.5 446.5,84.5 446.4,84.6 446.4,84.6 446.3,84.5 446.3,84.5 446.3,84.6 446.1,84.7 
		446.1,84.7 445.9,84.6 445.5,84.6 445.5,84.5 445.4,84.5 445.4,84.5 445.4,84.5 445.4,84.5 445.3,84.5 445.2,84.6 445.1,84.6 
		445.1,84.5 445,84.5 445,84.5 444.9,84.5 444.9,84.5 444.6,84.5 444.6,84.3 444.5,84.3 444.4,84.2 444.1,84.2 444.1,84.1 
		444.2,84.1 444.2,84 444.3,84 444.3,84 444.2,84 444.2,83.9 444,83.9 444,83.5 444,83.5 444,83.5 443.9,83.5 443.9,83.4 
		443.9,83.4 443.9,83.3 443.8,83.4 443.9,83.5 443.9,83.6 443.7,83.6 443.7,83.5 443.6,83.5 443.6,83.5 443.6,83.5 443.5,83.5 
		443.6,83.5 443.6,83.6 443.6,83.7 443.6,83.8 443.5,83.8 443.5,83.7 443.4,83.7 443.3,83.7 443.2,83.7 443.1,83.6 443.1,83.6 
		443,83.5 443,83.5 443,83.6 442.5,84 442.5,84 441.9,84.3 441.8,84.5 441.8,84.6 441.9,84.6 442.1,84.8 442.1,84.8 441.9,84.8 
		441.9,84.9 441.9,84.9 442,85.1 442,85.2 442.1,85.3 442,85.3 442,85.3 441.9,85.3 441.9,85.4 441.8,85.4 441.8,85.4 441.8,85.4 
		441.8,85.5 441.8,85.5 441.8,85.6 441.9,85.7 441.9,85.8 442,85.9 442,85.9 442.1,86 442.1,86 442,86.1 442,86.4 441.9,86.4 
		441.9,86.5 441.8,86.5 441.8,86.5 441.7,86.5 441.7,86.6 441.6,86.6 441.4,87 441.4,87 441.3,87.2 441.3,87.4 441.4,87.5 
		441.3,87.5 441.3,87.5 441.3,87.6 441.2,87.6 441.2,87.8 441.2,87.9 441.2,88 441.1,88 441.1,88 440.9,88 440.8,88.1 440.8,88.2 
		440.7,88.2 440.1,87.9 440,87.9 440,87.8 439.9,87.8 439.7,87.6 439.7,87.6 439.7,87.6 439.5,87.5 439.5,87.4 439.5,87.3 
		439.4,87.3 439.4,87.2 439.4,87.2 439.4,87.3 439.2,87.3 439.2,87.2 439.2,87.2 439.2,87.1 439,87.1 439,87 438.9,87 438.9,87 
		438.9,87 438.8,86.8 438.8,86.8 438.7,86.8 438.7,86.8 438.6,86.8 438.6,86.9 438.6,86.9 438.5,86.8 438.5,86.7 438.5,86.7 
		438.4,86.7 438.4,86.8 438.2,86.8 438.3,86.9 438.2,87 438.1,87 438.1,87 437.9,87 437.9,87 438,87 438,86.9 438,86.9 438,86.8 
		437.7,86.8 437.7,86.8 437.7,86.8 437.7,87 437.7,87.2 437.6,87.2 437.6,87.1 437.3,87.1 437.2,87.2 437.2,87.6 437.3,87.6 
		437.4,87.8 437.4,87.9 437.4,88 437.5,88 437.6,88 437.5,88.1 437.6,88.1 437.6,88.1 437.6,88.2 437.7,88.2 437.7,88.3 437.6,88.3 
		437.6,88.4 437.6,88.5 437.6,88.6 437.7,88.6 437.7,88.5 437.8,88.5 437.8,88.6 437.9,88.6 437.9,88.7 438,89.1 438,89.1 438,89.2 
		438.2,89.2 438.2,89.4 438.1,89.5 438.1,89.5 438,89.5 438,89.5 438,89.5 437.9,89.5 437.9,89.7 437.7,89.7 437.7,89.7 437.7,89.8 
		437.6,89.8 437.6,89.9 437.6,89.8 437.5,89.9 437.4,89.9 437.4,89.9 437.5,89.9 437.5,90 437.6,90 437.6,90 437.7,90 437.7,90.1 
		437.6,90.1 437.6,90.2 437.4,90.2 437.4,90.1 437.3,90.1 437.3,90.2 437.1,90.2 437.1,90.3 437.1,90.3 437,90.4 437,90.5 
		436.8,90.5 436.8,90.4 436.7,90.4 436.7,90.5 436.7,90.5 436.6,90.5 436.5,90.5 436.5,90.5 436.5,90.4 436.4,90.2 436.4,90.2 
		436.3,90.2 436.2,90.1 436.2,90.1 436.2,90.2 436,90.4 436,90.5 435.9,90.6 435.9,91 436,91.1 436,91.1 435.9,91.1 435.9,91.4 
		435.9,91.4 435.9,91.7 435.9,91.7 435.9,91.8 436,91.8 436,91.8 435.9,91.8 435.8,91.9 435.8,92 435.7,92 435.7,92.2 435.6,92.2 
		435.6,92.2 435.7,92.3 435.8,92.3 435.8,92.4 435.6,92.4 435.5,92.5 435.5,92.5 435.5,92.7 435.5,92.7 435.6,92.7 435.8,92.8 
		435.8,92.8 436,93 435.9,93.1 436,93.2 436,93.2 435.9,93.2 435.9,93.3 435.9,93.3 435.9,93.4 436.1,93.4 436.1,93.4 436.1,93.4 
		436.1,93.5 435.9,93.5 435.9,93.5 436,93.6 436,93.7 435.9,93.7 435.9,93.8 436,93.8 436,93.8 436.1,93.8 436.1,94.3 436.2,94.4 
		436.2,94.6 436.1,94.6 436.1,94.6 436.1,94.7 436,94.7 436,94.9 435.9,94.9 435.9,94.9 435.9,94.9 435.9,95 435.9,95 435.9,95.1 
		435.8,95.1 435.8,95.2 435.7,95.2 435.7,95.3 435.5,95.3 435.5,95.4 435.6,95.4 435.6,95.4 435.7,95.4 435.7,95.5 435.8,95.6 
		435.8,95.9 435.7,95.9 435.7,96 435.6,96 435.6,96.2 435.6,96.2 435.6,96.5 435.3,96.5 435.3,96.6 435.2,96.6 435.2,96.7 
		435.2,96.7 435.3,96.7 435.3,96.8 435.3,96.9 435.2,96.9 435.2,97 435.2,97 435.2,97.1 435,97.2 435,97.5 435.1,97.5 435.1,97.7 
		435.2,97.8 435.2,97.9 435.3,98 435.3,98.1 435.3,98.1 435.3,98.2 435.2,98.2 435.2,98.3 435.3,98.3 435.3,98.5 435.3,98.6 
		435.3,98.6 435.2,98.6 435.2,98.4 435.1,98.4 435.1,98.9 435.2,98.9 435.2,98.9 435.1,99.1 435.1,99.1 435.2,99.2 435.2,99.2 
		435.2,99.2 435.2,99.3 435.5,99.3 435.5,99.4 435.5,99.4 435.5,99.4 435.5,99.4 435.4,99.4 435.3,99.4 435.3,99.4 435.4,99.5 
		435.5,99.5 435.5,99.5 435.5,99.6 435.6,99.6 435.6,99.7 435.7,99.7 435.9,100.5 435.8,100.5 435.8,100.5 435.8,100.5 435.8,100.7 
		435.8,100.7 435.8,100.6 435.9,100.6 435.9,100.7 435.8,100.7 435.9,100.8 435.8,100.8 435.8,100.8 435.8,100.8 435.8,100.9 
		435.9,100.9 435.9,101.1 435.9,101.1 436,101.1 436.1,101.1 436.1,101.2 436.1,101.3 436.1,101.3 436.1,101.4 436.1,101.5 
		436.3,101.5 436.4,101.5 436.3,101.6 436.3,101.6 436.2,101.6 436.2,101.8 436.2,101.8 436.4,101.9 436.4,101.9 436.5,102 
		436.5,102.2 436.4,102.2 436.4,102.4 436.5,102.4 436.6,102.4 436.6,102.1 436.7,102.1 436.7,102.2 436.7,102.2 436.7,102.3 
		436.7,102.4 436.7,102.6 436.8,102.6 436.8,102.7 436.8,102.8 436.8,103 436.8,103 436.7,103 436.7,103.1 436.8,103.1 436.8,103.2 
		436.8,103.2 436.8,103.4 436.8,103.4 436.8,103.6 437,103.6 437,103.5 437.1,103.5 437.1,103.7 437.1,103.7 437.2,103.7 
		437.3,103.8 437.3,103.8 437.3,103.8 437.4,103.9 437.6,103.9 437.6,104 437.7,104 437.7,104.1 437.7,104.1 437.8,104.5 
		437.7,104.5 437.7,104.5 437.9,104.5 437.9,104.6 437.9,104.6 437.9,104.8 437.9,104.8 437.9,104.9 437.9,104.9 437.9,105 
		437.9,105.1 437.9,105.1 438,105.2 438,105.2 438,105.3 438,105.3 438,105.4 438.1,105.4 438.1,105.5 438,105.5 438,105.7 
		438.2,105.7 438.2,105.7 438.2,105.7 438.2,105.8 438.3,105.9 438.2,105.9 438.2,106 438.3,106 438.3,106.1 438.3,106.1 
		438.3,106.2 438.4,106.2 438.4,106.3 438.3,106.3 438.3,106.2 438.2,106.2 438.2,106.3 438.3,106.3 438.3,106.4 438.3,106.4 
		438.3,106.4 438.4,106.4 438.4,106.5 438.3,106.5 438.3,106.4 438.2,106.5 438.2,106.5 438.3,106.5 438.3,106.7 438.3,106.7 
		438.2,106.7 438.2,107 438.3,107 438.3,107.1 438.4,107.2 438.4,107.4 438.2,107.4 438.2,107.5 438.3,107.5 438.3,107.5 
		438.5,107.5 438.5,107.5 438.3,107.5 438.3,107.6 438.3,107.8 438.2,107.8 438.1,107.7 438.1,107.6 438,107.6 438,107.8 
		438.1,107.8 438.1,108 438,108 438.1,108 438.2,108 438.2,108 438.2,108 438.1,108.1 438.1,108.2 438.2,108.2 438.2,108.3 
		438.2,108.3 438.2,108.3 438.1,108.3 438.1,108.4 438,108.4 438,108.4 438,108.5 438,108.6 438.1,108.6 438.1,108.7 438,108.7 
		437.9,108.6 437.9,108.6 437.9,108.7 437.8,108.7 437.8,108.8 437.9,108.8 437.9,108.9 437.8,108.9 437.8,108.9 437.7,109 
		437.7,109.2 437.8,109.3 437.8,109.4 437.7,109.4 437.7,109.6 437.7,109.6 437.7,109.6 437.6,109.6 437.6,109.8 437.6,109.9 
		437.6,109.9 437.5,110 437.5,110 437.6,110.1 437.5,110.1 437.5,110.2 437.4,110.2 437.4,110.2 437.4,110.3 437.4,110.3 
		437.4,110.3 437.4,110.4 437.5,110.4 437.5,110.5 437.4,110.5 437.4,110.6 437.4,110.6 437.4,110.7 437.6,110.7 437.6,110.8 
		437.5,110.8 437.5,110.7 437.4,110.7 437.4,111 437.4,111 437.4,111.1 437.5,111.1 437.5,111.1 437.6,111.2 437.6,111.3 
		437.5,111.3 437.4,111.3 437.4,111.4 437.4,111.4 437.4,111.5 437.5,111.5 437.5,111.5 437.6,111.4 437.6,111.4 437.6,111.9 
		437.7,111.9 437.6,112.6 437.5,112.6 437.5,112.7 437.6,112.7 437.5,112.7 437.5,113.1 437.6,113.2 437.6,113.4 437.6,113.4 
		437.6,113.5 437.5,113.6 437.4,113.6 437.4,113.7 437.6,113.7 437.6,113.7 437.5,113.7 437.5,113.8 437.4,113.8 437.4,113.9 
		437.4,113.9 437.4,114 437.4,114 437.5,114 437.4,114 437.4,114.2 437.5,114.2 437.5,114.3 437.4,114.3 437.4,114.5 437.5,114.6 
		437.6,114.6 437.6,114.7 437.5,114.7 437.5,114.6 437.4,114.6 437.4,114.7 437.4,114.7 437.4,114.8 437.3,114.8 437.3,114.8 
		437.4,114.8 437.4,115 437.4,115 437.4,115.1 437.3,115.1 437.3,115.1 437.4,115.3 437.4,115.3 437.4,115.4 437.4,115.4 
		437.5,115.4 437.5,115.5 437.4,115.5 437.4,115.6 437.4,115.6 437.4,115.7 437.3,115.7 437.1,115.9 437.1,116 437,116.1 437,116.2 
		437,116.2 437,116.2 436.9,116.2 436.9,116.5 437,116.5 437,116.7 437,116.7 437,116.7 437,116.9 436.9,116.9 436.8,116.9 
		436.8,117 436.8,117 436.8,117.2 436.7,117.2 436.5,117.3 436.5,117.3 436.6,117.3 436.6,117.4 436.7,117.4 436.7,117.6 
		436.6,117.6 436.6,117.5 436.5,117.5 436.5,117.6 436.5,117.6 436.5,117.7 436.5,117.7 436.5,117.7 436.5,117.8 436.5,117.8 
		436.6,118 436.6,118 436.5,118 436.5,118.1 436.4,118.3 436.4,118.3 436.3,118.3 436.3,118.4 436.2,118.4 436.2,118.5 436.2,118.5 
		436.2,118.4 436.1,118.4 436.1,118.5 436.1,118.6 436.1,118.7 435.9,118.8 435.9,118.8 435.8,118.9 435.7,118.9 435.6,118.9 
		435.6,119.2 435.7,119.2 435.7,119.1 435.8,119.1 435.8,119.2 435.9,119.2 435.9,119.4 435.9,119.4 435.9,119.5 436,119.5 
		436,119.7 436.1,119.7 436.1,119.9 436.1,119.9 436.1,120 435.9,120 435.9,120 436,120 436,120.3 436.1,120.4 436.1,120.4 
		436.1,120.4 436,120.5 435.9,120.5 435.9,120.7 435.8,120.7 435.8,120.7 435.8,120.7 435.7,120.7 435.6,120.7 435.6,120.7 
		435.7,120.7 435.7,120.8 435.6,120.9 435.6,120.8 435.6,120.8 435.6,120.8 435.5,120.8 435.3,120.9 435.3,121 435.4,121 435.5,121 
		435.5,120.9 435.6,120.9 435.6,121 435.5,121 435.5,121 435.4,121 435.4,121.1 435.3,121.1 435.3,121.1 435.4,121.2 435.5,121.2 
		435.5,121.3 435.3,121.3 435.3,121.5 435.3,121.6 435.3,121.6 435.3,121.6 435.5,121.6 435.5,121.7 435.5,121.7 435.5,121.8 
		435.3,121.8 435.3,121.8 435.2,121.9 435.2,121.9 435.3,122 435.3,122.1 435.3,122.2 435.3,122.3 435.4,122.4 435.4,122.6 
		435.5,122.6 435.5,122.6 435.5,122.7 435.5,122.7 435.6,122.7 435.6,122.9 435.6,122.9 435.6,123.1 435.6,123.1 435.6,123.1 
		435.6,123.1 435.7,123.2 435.7,123.4 435.8,123.4 435.8,123.4 435.8,123.6 435.9,123.6 435.9,123.7 435.9,123.7 435.8,123.7 
		435.8,123.8 435.8,123.8 435.8,123.9 435.8,124 435.8,124 435.8,124.1 435.8,124.2 435.8,124.2 435.8,124.3 435.8,124.3 
		435.8,124.5 435.7,124.5 435.7,124.6 435.8,124.5 435.8,124.5 435.8,124.6 435.8,124.6 435.8,124.7 435.7,124.8 435.8,124.8 
		435.8,124.8 435.8,124.8 435.8,124.9 435.6,124.9 435.6,125 435.5,125 435.5,125 435.5,125.1 435.4,125.1 435.4,125.2 435.2,125.2 
		435.2,125.3 435.4,125.3 435.4,125.4 435.3,125.4 435.3,125.4 435.2,125.4 435.2,125.3 435.2,125.3 435.2,125.4 435,125.4 
		435,125.6 434.9,125.6 434.9,125.7 434.6,125.7 434.6,125.8 434.5,125.8 434.4,125.9 434.2,125.9 434.2,126 434.1,126 434.1,125.9 
		434.1,125.9 434.1,125.9 433.8,125.9 433.8,126 433.7,126.1 433.7,126 433.6,126 433.6,126.2 433.5,126.2 433.5,126.3 433.5,126.3 
		433.5,126.2 433.4,126.2 433.4,126.1 433.4,126.1 433.4,126 433.3,126 433.3,125.9 433.2,125.9 433.2,125.9 433.2,125.9 
		433.2,125.8 433.1,125.8 433.1,125.8 432.9,125.8 432.9,125.8 432.8,125.8 432.8,125.9 432.6,125.9 432.6,125.9 432.5,125.9 
		432.5,126 432.3,126 432.3,125.9 432.2,125.9 432.2,125.9 432,125.9 431.9,125.8 431.7,125.8 431.7,125.8 431.6,125.8 431.6,125.8 
		431.3,125.8 431.3,125.8 431.2,125.8 431.2,125.7 431.1,125.7 431.1,125.6 431,125.6 431,125.5 431,125.5 431,125.6 430.8,125.6 
		430.8,125.6 430.8,125.6 430.8,125.6 430.8,125.5 430.8,125.4 430.8,125.4 430.8,125.5 430.7,125.5 430.7,125.3 430.8,125.3 
		430.8,125.3 430.7,125.3 430.7,125.2 430.7,125.1 430.5,125.1 430.5,125.1 430.4,125.1 430.4,125.1 430.4,125.1 430.4,125.2 
		430.2,125.2 430.2,125.3 430.1,125.3 430.1,125.3 430.1,125.3 430.1,125.4 430,125.4 430,125.2 429.9,125.2 429.9,125.3 
		429.9,125.1 429.6,125.1 429.6,125.4 429.5,125.4 429.5,125.4 429.3,125.4 429.3,125.4 429.2,125.4 429.2,125.3 429.1,125.3 
		429.1,125.3 429,125.3 429,125.3 428.9,125.3 428.9,125.1 428.9,125.1 428.9,125.1 428.8,125.1 428.8,125.1 428.7,125.1 
		428.7,125.2 428.6,125.2 428.6,125.3 428.7,125.3 428.7,125.4 428.6,125.4 428.6,125.5 428.4,125.5 428.4,125.6 428.3,125.6 
		428.3,125.6 428,125.6 428,125.5 428,125.5 428,125.4 427.8,125.4 427.8,125.4 427.7,125.4 427.7,125.4 427.7,125.4 427.7,125.5 
		427.4,125.5 427.4,125.6 427.2,125.6 427.2,125.7 427.2,125.7 427.2,125.6 427.1,125.6 427.1,125.8 427.1,125.8 427,125.7 
		426.8,125.7 426.7,125.8 426.6,125.8 426.6,125.8 426.3,125.8 426.3,125.9 426.2,125.9 426.2,126 426,126 426,126.1 426,126.1 
		426,126 425.9,126 425.9,125.9 425.9,125.9 425.9,126 425.7,126 425.7,125.9 425.7,125.9 425.6,125.9 425.6,125.8 425.6,125.8 
		425.6,125.9 425.4,125.9 425.4,125.9 425.4,125.9 425.4,125.9 425.3,125.9 425.3,125.8 425.3,125.8 425.3,125.8 425.2,125.8 
		425.2,125.5 425.1,125.5 425.1,125.4 425.1,125.3 425,125.3 425,125.3 424.9,125.3 424.9,125.2 424.8,125.2 424.8,125.1 
		424.8,125.1 424.7,125.1 424.7,125.1 424.7,125 424.5,125 424.5,125 424.6,125 424.6,124.9 424.5,124.9 424.5,124.8 424.6,124.8 
		424.6,124.6 424.4,124.6 424.4,124.3 424.3,124.3 424.3,124.1 424.1,124.1 424.1,124.2 424,124.2 424,124.2 423.9,124.2 
		423.9,124.3 423.9,124.3 423.9,124.3 423.8,124.3 423.8,124.3 423.8,124.3 423.8,124.2 423.7,124.2 423.6,124.1 423.6,123.7 
		423.6,123.7 423.6,123.7 423.6,123.7 423.6,123.6 423.7,123.6 423.7,123.5 423.6,123.5 423.6,123.4 423.6,123.4 423.6,123.3 
		423.6,123.3 423.6,123.2 423.5,123.2 423.5,123.1 423.5,123.1 423.4,123.2 423.4,123.2 423.3,123.2 423.3,123.2 423.2,123.2 
		423.2,123.1 423.2,123.1 423.2,123.1 423.2,123.1 423.2,122.9 423.2,122.9 423.2,122.8 423.1,122.8 423.1,122.7 423,122.7 
		423,122.6 423,122.6 423,122.5 422.9,122.4 422.9,122.3 422.9,122.3 422.9,122 422.8,122.1 422.8,122 422.7,122 422.7,121.9 
		422.8,121.9 422.8,121.8 422.9,121.8 422.8,121.8 422.8,121.6 422.7,121.6 422.7,121.6 422.6,121.6 422.6,121.5 422.7,121.5 
		422.7,121.3 422.6,121.3 422.6,121 422.6,121 422.5,121 422.5,120.9 422.4,120.9 422.4,120.8 422.6,120.7 422.6,120.7 422.6,120.7 
		422.6,120.6 422.5,120.6 422.5,120.4 422.4,120.4 422.4,120.4 422.5,120.4 422.5,120.3 422.6,120.3 422.6,120.2 422.4,120.2 
		422.4,120.2 422.4,120.1 422.4,120.1 422.4,120 422.3,120 422.3,119.9 422.3,119.9 422.3,119.8 422.3,119.7 422.4,119.7 
		422.4,119.6 422.4,119.6 422.4,119.6 422.4,119.6 422.4,119.3 422.4,119.3 422.4,119.2 422.4,119.2 422.4,119.1 422.4,119.1 
		422.4,119 422.5,119 422.5,119.1 422.6,119 422.6,118.9 422.6,118.9 422.6,118.8 422.6,118.8 422.6,118.6 422.7,118.6 422.7,118.4 
		422.7,118.4 422.7,118.3 422.8,118.3 422.8,117.8 422.7,117.8 422.7,117.5 422.8,117.5 422.8,117.1 422.6,117.1 422.6,117 
		422.6,117 422.6,116.6 422.6,116.5 422.7,116.5 422.7,116.2 422.6,116.2 422.6,116.1 422.7,116.1 422.7,115.9 422.8,115.9 
		422.8,115.7 422.9,115.7 422.9,115.5 423,115.5 423,115.4 423,115.4 423.1,115.4 423.1,115.3 423,115.3 423,115.1 423.1,115.1 
		423,115.1 423,114.9 423,114.9 423,114.8 422.9,114.8 422.9,114.6 423,114.6 423,114.5 423,114.5 423,114.5 423.1,114.5 423,114.4 
		423,114.3 423,114.3 422.9,114.3 422.9,114.2 422.9,114.1 422.9,114 422.8,114 422.8,113.9 422.7,113.9 422.7,113.7 422.6,113.7 
		422.6,113.7 422.6,113.7 422.6,113.6 422.5,113.5 422.4,113.6 422.4,113.5 422.4,113.5 422.4,113.4 422.3,113.4 422.3,113.4 
		422.3,113.4 422.3,113.2 422.2,113.2 422.2,113.1 422.3,113.1 422.3,113 422.2,113 422.2,113 422.1,113 422.1,112.9 422,112.9 
		422,112.9 421.9,112.9 421.9,112.7 421.8,112.7 421.8,112.7 421.7,112.7 421.6,112.6 421.5,112.6 421.5,112.6 421.5,112.6 
		421.5,112.5 421.4,112.5 421.4,112.4 421.3,112.4 421.3,112.4 421.2,112.4 421.2,112.3 421.2,112.3 421.2,112.2 421.1,112.2 
		421.1,112.1 421.1,112.1 421.1,112.1 421.1,112 421.1,112 421.1,111.9 421,111.9 421,111.9 420.9,111.9 420.9,111.6 420.9,111.6 
		420.9,111.5 420.8,111.5 420.8,111.5 420.9,111.4 420.9,111.3 420.9,111.3 420.9,111.2 420.9,111.1 420.9,110.8 420.8,110.8 
		420.8,110.7 420.8,110.7 420.8,110.6 420.7,110.6 420.7,110.5 420.6,110.5 420.6,110.5 420.6,110.4 420.5,110.4 420.5,110.3 
		420.5,110.3 420.5,110.3 420.4,110.3 420.4,110.2 420.3,110.2 420.3,110.2 420.3,110 420.2,110 420.2,110 420.2,110 420.2,109.8 
		420.1,109.7 420.1,109.4 420.2,109.4 420.2,109 420.2,108.9 420.2,108.9 420.3,108.8 420.3,108.8 420.5,108.8 420.5,108.7 
		420.5,108.6 420.6,108.5 420.6,107.8 420.7,107.8 420.7,107.8 420.8,107.8 420.8,107.7 420.8,107.6 420.9,107.6 420.9,107.5 
		420.9,107.5 421,107.5 421,107.4 421.1,107.4 421.1,107.3 421.2,107.3 421.2,107.3 421.2,107.3 421.2,107.2 421.4,107.2 
		421.4,107.2 421.5,107.2 421.5,107.1 421.6,107.1 421.7,107.2 422,107.2 422.1,107 422.1,107 422.1,106.9 422.1,106.9 416.8,106.4 
		416.7,106.4 416,106.4 416,106.3 415.4,106.3 415.4,106.2 402.4,105.2 402.4,105.1 398,104.8 397.9,104.8 397.2,104.8 397.2,104.7 
		395.9,104.6 395.7,104.6 395.7,104.6 395.7,104.6 395.6,104.6 392.9,104.4 392.8,104.3 392.2,104.3 392.1,104.3 384.4,103.7 
		384.3,103.7 347.5,100.5 347.4,100.5 333,99.2 333,99.2 327.5,98.8 327.4,98.7 323.8,98.4 323.7,98.4 322.7,98.3 322.6,98.3 
		313.1,97.5 313,97.5 302.4,96.6 302.3,96.5 298.1,96.2 298,96.2 297.4,96.2 297.3,96.1 296.7,96.1 296.6,96.1 295.2,96 295.2,95.9 
		294,95.9 294,95.8 287.4,95.3 287.3,95.3 286.7,95.3 286.6,95.2 282.5,94.9 282.5,94.8 279,94.6 278.9,94.5 272.5,94 272.4,94 
		241.2,91.4 241.2,91.4 237.7,91.1 237.6,91.1 230.8,90.5 230.8,90.5 230.2,90.5 230.1,90.4 229.4,90.4 229.3,90.3 224.2,90 
		224.1,89.9 223.6,89.9 223.5,89.9 222.8,89.9 222.7,89.8 221.4,89.7 221.4,89.7 218.7,89.5 218.7,89.4 216.3,89.3 216.2,89.2 
		215.5,89.2 215.3,88.4 215.2,88.4 215.2,88.3 214.9,87.9 214.9,87.9 214.8,87.8 214.8,87.8 214.8,87.8 214.6,87.6 214.6,87.6 
		214.6,87.6 214.5,87.5 214.5,87.5 214.3,87.4 214.3,87.4 214.1,87.2 214.1,87.2 214,87.1 214,87 214,86.9 214,86.7 213.9,86.6 
		213.9,86.5 213.9,86.4 213.9,86.4 213.8,86.3 213.8,86.2 213.7,86.2 213.7,86.2 213.7,86.1 213.6,86.1 213.6,86 213.6,86 213.5,86 
		213.4,85.9 213.4,85.9 213.3,85.7 213.3,85.7 213.3,85.7 213.2,85.6 213.2,85.6 213.1,85.6 213.1,85.5 213,85.5 212.9,85.4 
		212.7,85.4 212.7,85.5 212.6,85.5 212.5,85.6 212.3,85.6 212.2,85.5 212.1,85.5 211.8,85.3 211.8,84.6 211.8,84.6 211.8,84.5 
		211.6,84.5 211.6,84.4 211.6,84.4 211.6,84.3 211.5,84.2 211.5,84.2 211.5,84.1 211.4,84.1 211.4,84.1 211.5,84 211.5,83.9 
		211.5,83.8 211.5,83.7 211.6,83.7 211.6,83.5 211.6,83.4 211.6,83 211.6,83 211.6,83 211.5,82.9 211.5,82.9 211.5,82.8 211.5,82.7 
		211.4,82.7 211.4,82.7 211,82 211,81.9 210.9,81.8 210.9,81.5 210.8,81.5 210.8,81.1 210.9,81.1 210.9,81 210.9,80.9 210.9,80.5 
		210.9,80.5 210.9,80.3 210.8,80.3 210.8,80.2 210.7,80.2 210.7,80.1 210.7,80 210.7,80 210.6,79.9 210.6,79.9 210.6,79.8 
		210.5,79.8 210.5,79.7 210.3,79.3 210.3,78.6 210.3,78.6 210.3,78.3 210.4,78.3 210.4,77.9 210.4,77.9 210.4,77.8 210.5,77.8 
		210.5,77.7 210.7,77.5 211,77.5 211,77.5 211.1,77.5 211.2,77.4 211.2,77.3 211.2,77.3 211.2,77 211.2,76.9 211.2,76.8 211.1,76.7 
		211.1,76.7 211,76.7 211,76.6 211,76.6 210.8,76.4 210.7,76.4 210.7,76.4 210.7,76.4 210.6,76.3 210.6,76.2 210.6,76.2 210.6,76 
		210.5,76 210.5,75.9 210.4,75.8 210.4,75.6 210.5,75.5 210.5,75.4 210.6,75.4 210.6,75.4 210.7,75.4 210.7,75.3 210.7,75.2 
		210.7,75 210.7,75 210.7,74.9 210.6,74.9 210.4,74.7 210.4,74.6 210.3,74.6 210.3,74.6 210.3,74.6 210.3,74.5 210.2,74.5 
		210.2,74.3 210.3,74.3 210.3,74.1 210.3,74.1 210.3,74.1 210.4,74.1 210.4,74 210.4,74 210.4,73.9 210.5,73.9 210.5,73.8 
		210.6,73.8 210.6,73.8 210.6,73.7 210.6,73.7 210.7,73.6 210.7,73.4 210.6,73.3 210.6,73.3 210.4,73.1 210.3,73.1 210.2,73 
		210.1,73 210.1,73 210.1,72.9 210,72.9 210,72.9 209.8,72.5 209.8,72.4 209.5,72.1 209.5,72 209.4,71.9 209.4,71.8 209.4,71.8 
		209.4,71.7 209.2,71.6 209.2,71.4 209.1,71.3 209.1,71.3 209.1,71.2 209.1,71.1 209,71.1 208.9,71 208.9,71 208.8,70.9 208.8,70.9 
		208.8,70.8 208.7,70.8 208.7,70.8 208.5,70.5 208.5,70.5 208.3,70.3 208.3,70.3 208.3,70.3 208.2,70.2 208.2,70.2 208.2,70.1 
		208.2,70 208.1,70 208.1,69.9 208,69.9 208,69.5 208,69.5 208,69.2 207.9,69.2 207.9,69.2 207.9,69.2 207.8,69.1 207.7,69.1 
		207.6,69 207.6,69 207.4,68.9 207.4,68.9 207,68.6 207,68.3 207.1,68.3 207.1,67.8 207.1,67.8 207.1,67.5 207.2,67.4 207.2,67.3 
		207.3,67 207.3,67 207.4,66.9 207.4,66.2 207.3,66.2 207.3,66.1 207.3,66 207.3,66 207.2,65.9 207.2,65.9 207.1,65.7 207,65.7 
		207,65.6 206.9,65.6 206.8,65.6 206.8,65.6 206.7,65.5 206.6,65.5 206.5,65.4 206.4,65.4 206.3,65.4 206.2,65.4 206.1,65.3 
		206,65.3 205.9,65.2 205.8,65.2 205.8,65.2 205.7,65.2 205.4,64.9 205.4,64.5 205.5,64.4 205.5,64.3 205.5,64.2 205.5,64.1 
		205.6,64.1 205.6,64 205.6,64 205.6,63.9 205.7,63.8 205.7,63.2 205.8,63.1 205.8,62.9 205.8,62.9 205.8,62.6 203.6,62.5 
		203.6,62.5 200.3,62.4 200.2,62.4 197.2,62.3 197.2,62.2 184.5,61.9 184.4,61.8 168,61.5 167.8,61.4 152.8,61 152.8,61 147.6,60.8 
		147.6,60.8 114.6,59.5 114.5,59.4 114.4,59.5 105.3,59.1 105.3,59 104.4,59 104.4,58.9 101.4,58.8 101.4,58.7 99.1,58.7 99,58.6 
		95.8,58.6 95.8,58.5 84.2,57.8 84.2,57.9 77.4,57.5 77.2,57.6 73,57.3 73,57.3 69.7,57 69.6,57 59,56.4 58.9,56.3 57.6,56.3 
		57.6,56.2 53.8,56 53.8,56 47.1,55.5 47,55.6 46.7,55.6 46.6,55.5 37.4,55.1 37.4,55 31.4,54.9 31.4,54.9 30.1,54.8 30,54.7 
		27.7,54.6 27.5,54.5 25.9,54.4 25.9,54.5 25.7,54.5 25.7,54.4 17,54 17,54 16.3,54 16.1,53.9 15.1,53.9 15,53.8 14.5,53.8 
		14.4,53.8 14.3,53.8 13,53.8 13,53.7 12.2,53.7 12.1,53.7 7.4,53.4 7.4,53.5 7.3,53.5 7.3,53.4 6.2,53.4 6.2,53.3 3.5,53.2 
		3.5,53.3 3.5,53.3 3.5,53.3 3.5,53.4 3.5,53.7 3.6,53.7 3.6,53.8 3.7,53.8 3.7,54.2 3.7,54.2 3.7,54.3 3.8,54.3 3.8,54.4 3.8,54.4 
		3.9,54.5 3.9,54.8 4,54.8 4,54.9 3.9,54.9 3.9,55 3.8,55.1 3.8,55.4 3.9,55.4 3.9,55.7 4,55.8 4,56 4.1,56 4.1,56 4.1,56.1 
		4.1,56.4 4.1,56.5 4.1,56.6 4,56.7 4,56.8 3.9,56.9 3.9,57.3 3.8,57.3 3.8,57.5 3.7,57.5 3.7,57.5 3.7,57.5 3.7,57.8 3.6,57.8 
		3.6,57.9 3.5,57.9 3.5,58.1 3.5,58.1 3.5,58.3 3.4,58.3 3.4,58.3 3.4,58.4 3.4,58.4 3.3,58.5 3.3,58.6 3.1,58.6 3.1,58.7 3,58.7 
		3,58.8 2.9,58.8 2.9,58.9 2.9,59 2.9,59.1 2.8,59.1 2.8,59.2 2.9,59.2 2.8,59.3 2.8,59.4 2.7,59.4 2.7,59.5 2.6,59.5 2.6,59.5 
		2.5,59.7 2.5,59.8 2.5,59.8 2.5,60 2.4,60 2.4,60.2 2.3,60.2 2.3,60.3 2.3,60.3 2.3,60.4 2.2,60.4 2.2,60.5 2.2,60.6 2.2,60.6 
		2,60.8 2,61 2,61 2,61.1 1.9,61.1 1.9,61.2 1.9,61.2 1.9,61.4 1.8,61.4 1.8,61.5 1.7,61.5 1.7,61.6 1.8,61.6 1.8,61.7 1.7,61.7 
		1.7,61.8 1.6,62 1.4,62 1.4,62.1 1.3,62.1 1.3,62.1 1.3,62.1 1.3,62.2 1.2,62.2 1.2,62.2 1.1,62.3 1.2,62.3 1.2,62.4 1.3,62.4 
		1.3,62.4 1.1,62.4 1.1,62.7 1.2,62.7 1.2,62.8 1.3,62.9 1.3,63.2 1.2,63.2 1.2,63.3 1.1,63.3 1.1,63.3 0.9,63.3 0.9,63.5 0.8,63.5 
		0.8,63.4 0.8,63.5 0.8,63.6 0.7,63.6 0.7,63.7 0.6,63.7 0.6,63.7 0.5,63.7 0.5,63.8 0.5,63.8 0.5,64 0.4,64 0.4,64.1 0.4,64.1 
		0.4,64.3 0.3,64.3 0.3,64.4 0.2,64.4 0.2,64.5 0.3,64.5 0.2,64.5 0.2,64.5 0.2,64.8 0.1,64.9 0.1,64.9 0,64.9 0,65.1 0.1,65.1 
		0.1,65.1 0.2,65.2 0.2,65.2 0.2,65.2 0.2,65.4 0.3,65.4 0.4,65.4 0.4,65.5 0.4,65.6 0.5,65.6 0.5,65.7 0.6,65.7 0.6,65.8 0.7,65.8 
		0.7,66 0.7,66 0.7,66.2 0.7,66.2 0.7,66.2 0.6,66.3 0.6,66.5 0.5,66.5 0.5,66.8 0.6,66.8 0.6,66.8 0.7,66.9 0.7,66.8 0.7,66.8 
		0.7,66.9 0.8,66.9 0.8,67 0.8,67 0.8,67.1 0.9,67.1 0.9,67.2 1,67.2 1,67.2 1,67.2 1,67.3 1.1,67.3 1.1,67.4 1.2,67.4 1.3,67.5 
		1.3,67.5 1.3,67.5 1.3,67.6 1.4,67.6 1.4,67.9 1.3,67.9 1.3,67.9 1.4,67.9 1.4,68 1.5,68 1.6,68.1 1.7,68.1 1.7,68.1 1.7,68.2 
		1.7,68.1 1.9,68.1 1.9,68.2 1.9,68.2 2,68.3 2,68.3 2.2,68.3 2.2,68.4 2.3,68.4 2.3,68.7 2.3,68.7 2.3,68.9 2.4,68.9 2.4,69.2 
		2.5,69.3 2.5,69.3 2.5,69.4 2.6,69.4 2.6,69.4 2.7,69.5 2.8,69.5 2.8,69.6 2.9,69.6 2.9,69.7 2.9,69.7 2.9,69.7 3.1,69.7 3.1,69.8 
		3.2,69.7 3.2,69.8 3.2,69.8 3.2,69.9 3.4,69.9 3.4,69.9 3.5,69.9 3.5,70 3.5,70 3.5,70 3.6,70 3.6,70 3.7,70 3.7,70 3.7,70.1 
		3.8,70.1 3.8,70.2 3.9,70.2 3.9,70.2 4,70.2 4,70.3 4,70.3 4.1,70.3 4.1,70.5 4.2,70.5 4.2,70.5 4.3,70.5 4.3,70.6 4.2,70.6 
		4.3,70.7 4.3,70.7 4.4,70.8 4.4,71 4.4,71 4.5,71.1 4.6,71.1 4.6,71.1 4.5,71.1 4.5,71.2 4.6,71.2 4.6,71.3 4.6,71.3 4.6,71.3 
		4.7,71.3 4.7,71.3 4.7,71.3 4.7,71.3 4.8,71.3 4.8,71.3 4.9,71.3 4.9,71.5 5,71.5 5,71.6 5,71.6 5.1,71.6 5.1,71.7 5.2,71.7 
		5.2,71.8 5.2,71.8 5.2,71.8 5.3,71.8 5.3,71.9 5.4,72 5.3,72.1 5.5,72.1 5.5,72.1 5.5,72.2 5.5,72.2 5.7,72.2 5.6,72.3 5.6,72.4 
		5.7,72.4 5.7,72.4 5.8,72.4 5.8,72.5 5.8,72.5 6,72.5 6,72.6 6.1,72.7 6.1,72.7 6.1,72.7 6.1,72.8 6.1,72.8 6.1,72.9 6.1,72.9 
		6.1,73 6.1,73 6.1,73.1 6.2,73.1 6.2,73.2 6.2,73.1 6.3,73.1 6.3,73.2 6.4,73.2 6.4,73.2 6.4,73.3 6.5,73.3 6.5,73.5 6.5,73.5 
		6.5,73.5 6.5,73.5 6.5,73.7 6.4,73.9 6.4,74 6.5,74 6.5,74.1 6.6,74.1 6.6,74.2 6.8,74.5 6.8,74.6 7,74.8 7.1,74.8 7.1,74.9 
		7.1,74.9 7.1,75.1 7.2,75.1 7.2,75.6 7.3,75.6 7.3,75.8 7.1,75.8 7.1,75.9 7.2,75.9 7.1,76 7.1,76 7.3,76.2 7.3,76.2 7.4,76.4 
		7.4,76.5 7.3,76.5 7.3,76.7 7.5,76.7 7.6,76.7 7.5,76.8 7.5,76.8 7.6,76.8 7.7,76.9 7.8,76.9 7.9,77 7.9,77.1 8,77.1 8,77.2 
		8,77.2 8,77.2 8.3,77.2 8.3,77.3 8.3,77.3 8.4,77.3 8.4,77.4 8.5,77.5 8.5,77.5 8.6,77.5 8.6,77.6 8.8,77.6 8.9,77.6 8.9,77.6 
		8.9,77.6 8.9,77.7 9,77.7 9,77.8 9.1,77.8 9.1,77.9 9.1,78 9.1,78.1 9.2,78.1 9.2,78.2 9.2,78.2 9.2,78.3 9.3,78.3 9.4,78.3 
		9.4,78.3 9.4,78.4 9.3,78.4 9.3,78.4 9.4,78.4 9.4,78.5 9.5,78.5 9.5,78.6 9.5,78.7 9.6,78.7 9.6,78.8 9.8,78.8 9.8,78.9 9.8,78.9 
		9.9,78.8 9.9,78.9 10,78.9 10,78.9 10,78.9 10,78.9 10.1,78.9 10.1,79 10.2,78.9 10.3,78.9 10.3,79 10.3,79 10.3,78.9 10.4,78.9 
		10.4,79.1 10.6,79.1 10.6,79.1 10.6,79.2 10.7,79.2 10.7,79.1 10.8,79.1 10.8,79.2 10.9,79.2 10.9,79.2 11,79.2 10.9,79.3 
		10.9,79.4 11,79.4 11,79.4 11,79.4 11,79.4 11.1,79.3 11.1,79.2 11.2,79.2 11.2,79.4 11.3,79.4 11.3,79.5 11.3,79.5 11.3,79.5 
		11.4,79.6 11.5,79.6 11.4,79.7 11.3,79.7 11.3,79.9 11.3,80 11.4,80 11.4,79.9 11.5,79.9 11.5,80 11.6,80 11.6,80.1 11.6,80.1 
		11.6,80.2 11.6,80.2 11.7,80.2 11.6,80.3 11.6,80.3 11.6,80.3 11.6,80.3 11.6,80.4 11.8,80.4 11.8,80.5 11.8,80.5 11.8,80.3 
		11.9,80.3 11.9,80.4 12.1,80.4 12.1,80.6 12.2,80.6 12.2,80.8 12.1,80.8 12.2,80.8 12.2,80.9 12.2,80.8 12.5,80.8 12.6,80.9 
		12.7,80.9 12.7,81 12.7,81 12.7,81 12.8,81.1 12.8,81.1 12.9,81.1 12.9,81.3 13,81.2 13,81.2 13,81.1 13.2,81.1 13.2,81.1 
		13.3,81.1 13.4,81.1 13.4,81.1 13.4,81 13.5,81 13.5,81.1 13.6,81.1 13.6,81.3 13.7,81.3 13.7,81.3 13.7,81.4 13.9,81.4 13.9,81.4 
		14,81.4 14,81.5 14,81.6 14.1,81.6 14.1,81.7 14.2,81.8 14.2,81.8 14.2,81.9 14.3,81.9 14.3,81.9 14.5,81.9 14.5,82 14.6,82 
		14.6,82.1 14.6,82.1 14.7,82.1 14.8,82.1 14.8,82.1 14.8,82.1 14.9,82.1 14.9,82.2 15,82.2 15,82.1 15.1,82.1 15.1,82.2 15.1,82.3 
		15.2,82.3 15.2,82.4 15.2,82.5 15.3,82.6 15.4,82.6 15.4,82.6 15.5,82.7 15.6,82.7 15.7,82.7 15.7,82.8 15.7,82.9 15.7,82.8 
		15.8,82.8 15.8,82.9 15.8,82.9 15.8,83 15.9,83 15.9,83.1 16,83.1 16,83 16,83 16.1,83 16.1,83 16.1,83.1 16.3,83.1 16.4,83.2 
		16.4,83.2 16.5,83.2 16.6,83.2 16.6,83.3 16.6,83.3 16.7,83.3 16.7,83.3 16.8,83.4 16.9,83.4 16.9,83.5 16.8,83.5 16.8,83.6 
		16.7,83.7 16.7,83.7 16.8,83.8 16.9,83.8 16.9,84.2 16.9,84.2 17,84.3 17,84.3 17,84.3 17.1,84.4 17,84.5 17,84.6 17.1,84.7 
		17.1,84.8 17,84.8 17,84.9 17,85 17,85.1 17.1,85.1 17.1,85.1 17.2,85.1 17.2,85.1 17.3,85.1 17.3,85.2 17.3,85.2 17.5,85.3 
		17.5,85.3 17.5,85.4 17.5,85.5 17.5,85.6 17.5,85.6 17.5,85.7 17.5,85.8 17.5,85.9 17.5,86 17.5,86 17.6,86 17.6,86.2 17.6,86.2 
		17.5,86.2 17.5,86.4 17.6,86.4 17.6,86.5 17.6,86.5 17.6,86.5 17.6,86.6 17.6,86.9 17.5,87 17.5,87.2 17.6,87.2 17.6,87.3 
		17.5,87.3 17.5,87.3 17.5,87.3 17.5,87.4 17.6,87.4 17.6,87.5 17.6,87.6 17.6,87.6 17.6,87.7 17.6,87.8 17.6,87.8 17.6,87.8 
		17.6,87.9 17.6,88 17.5,88 17.5,88.1 17.4,88.1 17.4,88.1 17.5,88.1 17.5,88.3 17.4,88.4 17.4,88.4 17.3,88.4 17.4,88.5 17.4,88.6 
		17.3,88.6 17.3,88.8 17.5,88.8 17.5,88.9 17.4,89 17.4,89.1 17.3,89.2 17.3,89.5 17.2,89.7 17.1,89.7 17.1,89.8 17,89.8 17,89.7 
		16.9,89.7 16.9,89.8 16.8,89.7 16.7,89.7 16.7,89.8 16.7,89.8 16.7,90 16.6,90 16.5,89.9 16.5,90.1 16.4,90.1 16.4,90.3 16.4,90.2 
		16.5,90.2 16.5,90.4 16.4,90.4 16.5,90.5 16.4,90.6 16.4,91 16.3,91 16.3,91 16.3,91.1 16.3,91.1 16.3,91.2 16.3,91.2 16.3,91.3 
		16.3,91.3 16.3,91.4 16.3,91.4 16.2,91.4 16.2,91.5 16.1,91.5 16.1,91.6 16.2,91.6 16.2,91.6 16.3,91.7 16.2,91.8 16.1,91.8 
		16.1,91.9 16.1,91.9 16.1,91.9 16,92 16,92 16,92.1 16.1,92.1 16.1,92.1 16,92.1 16,92.2 16,92.2 16,92.2 15.9,92.2 15.9,92.3 
		15.8,92.3 15.8,92.4 15.9,92.4 15.9,92.6 15.8,92.7 15.7,92.7 15.7,92.6 15.7,92.7 15.6,92.7 15.5,92.7 15.5,92.9 15.5,92.9 
		15.4,92.9 15.4,92.9 15.4,93 15.4,93 15.4,93.1 15.5,93.1 15.5,93.3 15.4,93.4 15.4,93.4 15.4,93.4 15.4,93.5 15.3,93.5 15.4,93.6 
		15.4,93.7 15.3,93.7 15.2,93.7 15.2,93.7 15.1,93.8 15,93.8 15,93.7 14.9,93.7 14.9,93.8 14.8,93.8 14.8,93.8 14.8,93.8 14.8,93.8 
		14.7,93.8 14.7,93.9 14.6,93.9 14.6,94 14.7,94 14.7,94.1 14.6,94.1 14.6,94.1 14.6,94.1 14.6,94.4 14.5,94.4 14.3,94.6 14.3,94.6 
		14.3,94.6 14.2,94.7 14,94.7 13.9,94.8 13.9,95 13.9,95 13.9,95.1 13.8,95.1 13.8,95.2 13.9,95.2 13.9,95.3 13.9,95.3 13.9,95.3 
		13.7,95.3 13.7,95.4 13.8,95.4 13.8,95.5 13.7,95.5 13.7,95.6 13.6,95.6 13.6,95.6 13.5,95.6 13.6,95.6 13.5,95.5 13.5,95.6 
		13.4,95.6 13.4,95.7 13.5,95.7 13.5,95.7 13.4,95.7 13.4,95.9 13.4,95.9 13.4,96.4 13.5,96.4 13.5,96.4 13.4,96.5 13.3,96.5 
		13.3,96.4 13.3,96.3 13.1,96.3 13.1,96.4 13.2,96.4 13.3,96.5 13.1,96.6 13.1,96.7 13.1,96.7 13.1,96.5 13,96.5 13,96.6 13,96.7 
		12.8,96.7 12.8,96.7 12.8,96.9 12.9,96.9 12.9,96.8 12.8,96.8 12.9,96.8 12.9,96.7 13,96.8 13,96.8 13,96.9 13.1,97 13.1,97 
		13.1,97 13.1,97 13,97 12.8,97.1 12.8,97.2 12.9,97.3 12.9,97.3 13,97.5 13,97.6 12.8,97.6 12.8,97.8 12.8,97.8 12.9,97.8 
		12.9,97.8 13,97.8 13,97.9 13,97.9 12.9,98 12.8,97.9 12.8,97.9 12.7,97.8 12.7,97.8 12.6,97.8 12.5,97.8 12.7,97.8 12.7,97.9 
		12.7,98.2 12.8,98.2 12.8,98.3 12.8,98.3 12.8,98.4 13,98.4 13,98.5 13,98.5 13.1,98.6 13.4,98.6 13.4,98.6 13.6,98.9 13.6,99 
		13.6,99 13.7,99.2 13.7,99.2 13.8,99.2 13.8,99.3 13.9,99.3 13.9,99.4 14,99.4 14,99.4 14,99.4 14,99.5 13.9,99.7 13.9,100 14,100 
		14,100.1 14.1,100.1 14.1,100.2 14.2,100.2 14.2,100.3 14.1,100.3 14.1,100.4 14,100.4 14,100.3 13.9,100.3 13.9,100.3 13.7,100.3 
		13.7,100.3 13.7,100.3 13.7,100.4 13.7,100.4 13.7,100.6 13.8,100.7 13.7,100.7 13.7,100.7 13.7,100.8 13.6,100.8 13.6,100.9 
		13.6,100.9 13.6,101 13.6,101.1 13.6,101.1 13.7,101.1 13.8,101.3 13.9,101.3 13.9,101.3 13.9,101.4 13.9,101.9 14.1,102.1 
		14.1,102.2 14.2,102.2 14.2,102.2 14.3,102.4 14.3,102.5 14.4,102.5 14.6,102.7 14.6,102.7 14.7,102.7 14.8,102.7 14.8,102.8 
		14.8,102.8 14.8,102.9 14.9,103 14.9,103 15.1,103.2 15.5,103.2 15.5,103.3 15.6,103.3 15.7,103.4 15.7,103.4 15.7,103.4 
		15.7,103.5 15.8,103.5 15.8,103.6 15.8,103.7 15.9,103.7 16,103.8 16.1,103.8 16.2,103.8 16.3,103.8 16.4,103.9 16.4,103.9 
		16.4,103.8 16.7,103.8 16.7,103.8 16.8,103.8 16.9,103.8 17,103.8 17,103.9 17.2,103.9 17.2,104 17.6,104 17.7,104 17.8,104 
		17.9,104.1 18,104.1 18.1,104.2 18.1,104.2 18.6,104.5 18.7,105.5 18,106 18,106.1 17.9,106.1 17.9,106.1 17.8,106.2 17.7,106.2 
		17.6,106.4 17.5,106.4 17.5,106.5 17.4,106.5 17.3,106.5 17.3,106.5 17.2,106.6 17.2,106.6 17.1,106.7 17,106.7 17,106.7 
		16.8,106.7 16.7,106.8 16.6,106.8 16.5,106.9 16.4,106.9 16.2,107 16.2,107 16.1,107 16,107.2 16,107.3 15.6,107.6 15.4,107.6 
		15.4,107.6 15.3,107.6 15.2,107.6 15.1,107.6 15.1,107.6 14.8,107.6 14.8,107.5 14.6,107.5 14.6,107.5 14,107.5 14,107.5 
		13.9,107.5 13.6,107.7 13.6,107.8 13.5,107.9 13.5,108 13.4,108 13.4,108.1 13.4,108.1 13.4,108.1 13.3,108.3 13.3,108.4 
		13.3,108.4 13.2,108.5 13.2,108.6 13.1,108.6 13.1,108.6 13,108.6 12.9,108.8 12.8,108.8 12.7,109.1 12.7,109.3 12.6,109.3 
		12.6,109.4 12.7,109.5 12.7,109.7 12.7,109.7 12.7,109.8 12.8,109.9 12.8,110 12.6,110.3 12.6,110.3 12.5,110.4 12.5,110.4 
		12.4,110.5 12.4,110.5 12.2,110.7 12.1,110.7 12.1,110.8 12.1,110.8 12.1,110.8 12,110.8 11.9,111 11.9,111 11.8,111 11.8,111.1 
		11.7,111.2 11.7,111.3 11.6,111.4 11.6,113.2 11.5,113.4 11.5,113.4 11.4,113.4 11.2,113.7 11.2,113.7 11.1,113.7 11.1,113.8 
		11,113.8 11,113.8 11,113.9 10.9,113.9 10.9,114 10.9,114 10.9,114 10.8,114 10.8,114.1 10.7,114.1 10.6,114.2 10.5,114.2 
		10.4,114.3 10.1,114.3 10.1,114.3 9.6,114.3 9.5,114.4 9.5,114.3 9.4,114.4 9.3,114.3 9.3,114.4 9.2,114.4 9.1,114.3 8.2,114.3 
		8.2,114.4 7.9,114.4 7.9,114.5 7.7,114.5 7.5,114.6 7.1,116.1 7.2,116.2 7.2,116.3 7.3,116.4 7.4,116.4 7.4,116.5 7.5,116.5 
		7.6,116.5 7.7,116.5 7.8,116.6 7.9,116.6 7.9,116.7 8.2,116.7 8.2,116.7 8.9,116.7 9,116.7 9,116.6 9.3,116.6 9.4,116.5 9.4,116.5 
		9.5,116.5 9.7,116.5 9.8,116.5 10,116.5 10,116.5 10.1,116.5 10.3,116.5 10.3,116.6 10.4,116.5 10.8,116.5 10.8,116.5 11,116.5 
		11,116.4 11,116.4 11,116.4 11.5,116.4 11.5,116.3 11.5,116.3 11.3,117.3 6,118.5 5.8,123.4 83.2,117.8 153,150.3 158.8,157.5 
		165.1,160.6 166.3,160.6 167.3,161.2 166.9,161.5 166.8,161.6 166.7,161.6 166.6,161.8 166.6,161.8 166.2,162.3 166.2,162.3 
		166,162.6 165.9,162.6 165.9,162.8 165.7,163 165.7,163.1 165.6,163.4 165.6,163.4 165.5,163.5 169.8,185.4 169.8,185.4 
		170.4,186.3 170.5,186.3 170.5,186.4 170.6,186.4 170.7,186.5 170.7,186.6 170.8,186.9 171,187 171,187.1 173.5,188.4 173.8,188.4 
		174,188.5 176.7,187.8 178.3,186.3 178.3,186.3 178.5,186 181.8,186.6 181.9,186.7 181.9,186.7 181.9,186.7 182.1,186.7 
		182.1,186.8 183,186.8 184.6,187.6 184.7,187.6 192.6,192.1 192.6,192.2 192.7,192.2 193.8,193.6 193.8,193.6 195.4,195 
		196.5,195.3 199.5,194.9 200.4,194.3 200.4,194.4 200.7,194.4 200.8,194.4 210.1,191 210.3,190.7 220.3,186.5 220.6,186.1 
		221.4,185.9 228.9,179.3 228.9,179.3 229,179.3 229.5,178.8 230.2,178.6 230.3,178.4 235.6,176.6 235.7,176.3 236.9,176.1 
		239.5,173.8 240.6,169.9 242.8,169.9 245.8,167.7 254.8,168.9 258,166.6 257.8,166.6 261,160.1 260.8,158 260.7,157.8 260.4,157.2 
		261.1,156.5 261.1,156.4 261.6,155.7 266.1,157 271.8,154.9 271.8,154.8 272.4,154 272.4,154 272.8,153.1 275.5,152.6 275.6,152.5 
		278,152.1 279.3,153.9 281.4,154.7 281.4,154.8 288,159.7 290.3,160.1 291.5,162.1 299.9,165.6 300,165.6 302.6,167.4 302.7,167.4 
		308.6,174.9 308.6,175.5 308.7,175.6 310.6,182.9 316.5,186.5 317.6,188.9 319.9,190.3 321.3,190.4 322.7,191.9 322.7,197.7 
		322.7,197.7 322.8,200.2 322.9,200.3 324.9,206 330.5,208.7 331.8,211.7 334.5,213.1 335.4,216.6 337.8,218.2 338.3,218.2 
		339.9,219.9 340.2,226.6 345,231.2 346.5,240.6 350.7,243.9 357.2,244.1 358.4,243.5 358.4,243.6 360.2,242 362.4,241.4 
		368.4,244.4 368.5,244.3 369,244.3 370.1,246.9 370,248.3 370.1,248.4 369.8,248.4 370.6,251.1 369.6,252.8 370.2,256.3 
		373.3,258.5 373.4,258.5 374.2,261.2 374.4,261.4 374.4,261.4 374.4,261.5 374.4,261.5 374.3,262.6 374.2,262.6 372.9,265.4 
		374.1,270.6 374.3,270.8 374.3,270.9 374.8,271.7 374.6,273 374.5,273.1 375.5,276.3 375.5,276.3 375.6,276.5 375.6,276.8 
		379.4,285.3 377.9,294.6 378,294.7 377.6,298 377.7,298.5 377.1,300 377.1,300 376.5,301.2 376.5,301.4 374.4,304.4 374.5,304.7 
		373.4,306.6 373.4,306.8 373.3,306.9 373.6,312 371.6,315.7 367.8,315.6 366.2,316.4 364.5,319.8 364.8,328.1 365.6,329.3 
		365.5,333.8 366.6,335.2 366,337 366.1,337.1 363.9,350.4 372,365.6 370.4,377.7 374.4,385.9 374.4,385.9 410.1,453.2 409.5,459.6 
		412.1,464.4 412.2,464.4 417.2,478.8 421.7,481.5 421.7,481.5 427.3,487.2 429.2,487.6 432.6,486.6 432.6,486.6 437.5,485.1 
		438.3,485.6 438.4,485.6 440.4,487.3 451.7,523.7 451.2,525.8 452,528.2 452.9,529.2 454.1,532.8 454.1,532.8 458.7,540.8 
		460.8,542.3 465.6,542.2 467.3,541.3 468.9,538.8 473.4,541.1 473.7,541.1 480.6,545.3 485.9,553.9 488.6,554.5 495.2,566.5 
		495.2,566.8 495.1,566.9 497.9,571.3 498.1,571.3 498.7,572.2 498.8,572.2 500.9,579.9 499.9,582.7 499.9,582.9 497.8,590 
		499.3,595.1 500.5,596.1 501.4,600.2 502.8,601.9 504.7,602.5 507.4,605.8 508.9,606.3 511.9,612 511.9,612.2 511.9,612.3 
		513.4,616.5 514.6,617 516.7,620.1 517.4,620.4 517.8,622.6 519.2,624.4 521.2,625.3 525.2,624.1 526.1,625.1 526.1,625.1 
		525.9,625.5 525.9,625.7 520.8,627.3 519.9,628.6 517,629.5 517,629.3 513.8,630.6 513.7,630.8 511.6,631.3 511,630.8 511,630.7 
		509.6,629.8 509.6,629.8 506,629.9 505.3,628.4 501.9,626.5 500.3,624.2 489.1,623.9 487.5,624.8 485.2,623.2 473,627.6 
		472.4,628.4 468.5,629.8 468.5,629.9 467.8,630.1 467.8,630.1 464.2,632.7 464.2,632.8 464,632.8 461.2,634.3 461.1,634.3 
		458.9,635.5 458.9,635.5 457.4,637 452.2,639 452,639.3 449.1,640.5 448.9,640.7 437.9,644.1 437.7,644.3 434.3,646 434.1,646 
		432.3,647.6 431.5,647.2 431.5,647.1 426.2,644.6 421.8,645 417.2,649 416.3,652.7 416.9,654.5 420,657.2 419.9,657.2 426.2,657.3 
		428.9,655.1 430.2,657.3 430.1,657.3 430.7,658.3 434.3,659.5 434.4,659.5 436.5,660 436,661.3 436.1,663.5 437.8,665.9 
		439.7,666.7 448.8,665.4 451.8,662.9 452.3,659.4 451.7,657.9 451.6,657.9 451.6,657.9 451.5,657.8 453.2,657.8 453.3,657.8 
		453,659.4 454.5,662.7 454.6,662.7 456.8,663.8 467.2,661.3 468.6,660.2 470.3,660 473.3,657.6 473.3,657.5 473.6,657.5 
		474.2,655.1 473.4,652.7 474.5,651.7 475.7,652 475.8,651.9 476.1,651.9 476.7,652.4 478.6,652.8 489,650 489.1,649.9 500,645.9 
		500.1,645.7 500.3,645.7 500.5,645.8 502.7,645.5 504.8,644.1 504.8,644.1 504.9,644.2 504.9,644.3 505,644.3 505,644.3 507,645.3 
		513,644.9 514.9,643.2 514.9,643.1 515,642.8 515,642.7 515.1,642.7 517,642.2 517,642.3 532.4,634 534.7,634 550,623.6 
		550.1,623.6 550.9,622.5 550.9,622.5 551,622.3 563,613.5 563,612.4 563.5,612.2 563.4,612.2 566.5,609.7 567,607 568.3,606.5 
		573.1,600.8 573.2,600.8 573.2,600.8 573.1,600.8 574.6,597.4 576.7,597.2 580.1,592.8 580,590.8 579,589 581,585.4 582.7,585.7 
		585.1,585.1 585.1,585 587.6,582 588.1,580.2 589.3,578.8 589.8,576.3 588.5,573.6 588.4,573.6 587.2,572.7 588.6,567.9 
		588.4,567.4 588.7,567 588.7,566.9 588.7,566.8 588.7,566.8 588.8,566.7 588.9,566.7 589.3,563 592.3,563 594.8,560.6 595.3,558.6 
		593.8,555.3 593.7,555.3 591.7,554.2 590.2,554.2 595,512.9 595.1,512.9 600,457 599.8,456.6 599.8,456.6 	"/>
</g>
</svg>
