<?xml version="1.0" encoding="utf-8"?>
<!-- Generator: Adobe Illustrator 20.0.0, SVG Export Plug-In . SVG Version: 6.00 Build 0)  -->
<svg version="1.1" id="Layer_1" xmlns="http://www.w3.org/2000/svg" xmlns:xlink="http://www.w3.org/1999/xlink" x="0px" y="0px"
	 viewBox="0 0 473 567.6" style="enable-background:new 0 0 473 567.6;" xml:space="preserve">
<style type="text/css">
	.st0{fill:none;stroke:#12719E;stroke-miterlimit:10;}
</style>
<g>
	<polygon class="st0" points="11,72.2 11,72.2 11,72.2 11,72.2 11,72.2 	"/>
	<polygon class="st0" points="340,519.6 340.1,519.6 340,519.6 340,519.6 340,519.6 340,519.6 	"/>
	<polygon class="st0" points="346.3,81.8 346.3,81.7 346.3,81.8 346.3,81.8 346.3,81.8 346.3,81.8 346.3,81.8 	"/>
	<polygon class="st0" points="344.5,73.5 344.6,73.6 344.5,73.5 344.5,73.5 344.5,73.5 344.5,73.5 344.5,73.5 	"/>
	<polygon class="st0" points="474.7,360.4 473.4,348.3 473.3,348.3 472.1,343.8 469.5,335.9 467,328 466.9,327.4 466.9,326.8 
		466.7,326.4 466.5,326 466.3,325.6 466,325.3 465.9,324.9 465.9,324.6 465.4,323.7 465,322.9 465,322.9 465,322.8 461.6,314.7 
		458.2,306.5 458.2,305.8 458.2,305.1 451.7,285.9 450.2,282.7 448.7,279.5 448.7,279.4 448.7,279.4 448.4,278.7 448.1,278 
		448,277.9 448,277.8 447.8,277.4 447.6,277 447.6,277 447.6,276.9 445.4,272.5 443.2,268 443.2,268 443.2,268 442.8,267.1 
		442.4,266.2 442.4,266.2 442.4,266.1 442.4,266.1 442.3,266.1 442.3,265.9 442.2,265.7 442.2,265.7 442.2,265.6 442.2,265.6 
		442.2,265.6 442.2,265.6 442.2,265.5 442.1,265.4 442,265.3 442,265.2 442,265.2 439.6,256.8 439.6,256.8 439.6,256.6 439.5,256.6 
		439.3,255.1 439.2,255.1 438.9,253 438.8,252.9 439.4,239.9 440.4,238.8 440.4,238.7 440.5,238.7 440.6,238.6 440.6,238.6 
		441.9,237.2 442.6,234.7 440.8,229.5 439.1,224.3 431.9,213.2 424.7,202.1 406.1,165 406.4,165 391.8,117.3 389.1,106 389.2,106 
		389.3,94.9 387.3,92.1 387,92 385.7,77.2 385.8,77.1 385.9,76.5 386.2,76.2 386.2,76.2 387.5,73.7 387.5,72.9 377.1,71.7 
		366.7,70.4 367.1,70.3 367.4,70.2 367.5,70.6 367.5,70.9 363.7,69.1 359.8,67.4 359.8,67.6 359.8,67.8 355.5,66.3 351.2,64.8 
		351.3,64.8 351.3,64.8 348.8,66 346.3,67.2 346.3,67.1 346.4,67.1 345.3,71.7 344.2,76.4 344.1,76.2 344.4,77 344.2,77 344.6,78 
		344.6,77.9 345.1,79.4 345.3,79.1 346.6,82.2 346.5,82.2 346.6,82.5 346.6,82.4 346.7,82.6 346.6,82.6 346.6,83.4 346.7,83.4 
		346.5,83.6 346.4,83.5 346,86 345.9,86 345.9,86.6 346,86.5 345.9,89.1 345.9,89.1 344.9,92.1 344.9,92.1 344.5,92.7 344.6,92.6 
		344.5,94 344.4,93.9 344.3,94.1 344.4,94 344.5,97 344.6,96.9 344.6,97.2 344.6,97.2 344.1,97.6 344.3,97.6 338.9,97.5 339,97.6 
		334.2,94.8 334.3,94.8 334.3,94.8 334.3,94.8 334.1,94.5 334.2,94.5 334.1,93.8 334,93.8 334,93.7 334,93.7 334,93.6 334,93.6 
		334,93.6 334.1,93.6 334,93 333.9,93 333.9,92.8 334,92.8 334,92.7 333.9,92.7 333.9,92.6 334,92.6 334,92.5 334,92.5 334,92.6 
		334.1,92.3 334.1,92.3 334.1,90.6 334.2,90.6 334.2,90.3 334.1,90.3 334.1,90.2 334.2,90.2 334.2,90.1 334.3,90.1 334.3,89.9 
		334.4,89.9 334.4,89.8 334.4,89.8 334,88.2 334,88.3 334,88.2 333.9,88.2 333.9,88.1 333.9,88.1 333.9,88.1 333.9,88.1 333.9,87.9 
		333.8,87.9 333.8,87.9 333.9,87.9 333.8,83 328.9,82.5 328.9,82.5 328.4,82.4 326.4,82.3 324.5,82.1 324.4,82.1 324.3,82.1 
		324.2,82.1 324,82.1 323.9,82 323.8,82 323.6,82 323.3,82 323.3,82 323.2,82 323,82 322.7,82 322.7,81.9 322.6,81.9 321.9,81.9 
		321.1,81.8 247.8,75.5 174.5,69.3 173.4,69.2 172.3,69.1 172.3,69.1 172.3,69.1 171.4,69 167.6,65.9 167.6,66 166.1,62.5 
		166.1,62.5 165.9,61.5 165.9,61.5 165.9,61.4 165.9,61.4 165.9,58 165.9,58 165.9,57.9 166,57.9 165.8,56.8 165.9,56.8 165.9,56.7 
		165.9,56.7 162.1,48 162.1,48 162.1,47.8 160.4,47.8 160.4,47.7 153,47.5 78.8,44 4.7,40.5 1.7,53.7 1.7,53.6 6.3,60.3 6.2,60.3 
		8.1,61.7 8,61.7 8.1,61.8 8,61.8 11.1,63.7 11.1,63.6 11.9,69.8 11.9,69.7 11.3,71.7 11.3,71.6 9.6,74 9.6,73.9 9.5,74.7 9.3,74.5 
		9.2,74.8 9.2,74.7 9.1,75 9.1,74.9 13.5,80.9 13.5,81 13.6,81 13.7,81.2 13.7,81.4 13.7,81.5 13.7,81.6 13.7,81.7 13.7,81.8 
		13.5,81.9 13.4,82.1 3.6,92.1 3.5,94.1 3.4,96 9.6,95.1 15.9,94.2 16.6,94 17.4,93.7 17.7,93.8 18,93.8 18.9,94.1 19.8,94.5 
		39,92.5 58.2,90.5 61.5,91.1 64.7,91.7 64.8,91.6 64.8,91.6 65.3,91.9 65.7,92.1 66.5,92.2 67.2,92.2 67.5,92.2 67.7,92.2 
		67.8,92.2 67.8,92.1 67.9,92.1 67.9,92.1 68,92.1 68,92.1 70.8,92.5 73.6,92.8 85.8,97.4 98,102 98.1,102.1 98.3,102.2 98.3,102.2 
		98.3,102.3 98.5,102.3 98.6,102.4 104.7,106.7 110.7,110.9 131.6,126 131,126.5 130.7,126.9 130.7,126.9 130.6,127.1 130.5,127.1 
		130.5,127.2 130.3,127.4 130.3,127.5 130.2,127.7 130.2,127.8 130.2,127.8 129.8,128.9 130.2,136.7 130.2,136.8 131,140 131,140 
		131,140.1 131.2,140.4 131.2,140.5 131.4,141.1 131.4,141.3 131.7,142 131.7,142 133.2,144.8 133.3,144.9 133.5,145.2 133.6,145.2 
		134.1,145.9 134.1,145.9 134.1,146 134.2,146 134.2,146.1 134.2,146.1 134.4,146.4 134.5,146.5 134.5,146.5 135.1,147.1 
		135.1,147.1 136.5,147.6 136.8,147.6 136.9,147.6 138.4,147.4 140.3,145.9 140.3,145.9 140.5,145.7 141.7,145.8 141.8,145.9 
		143.1,146.2 143.1,146.2 143.2,146.2 143.2,146.3 143.3,146.3 143.3,146.3 144.1,146.3 144.1,146.4 145.2,146.9 145.3,147 
		145.4,147 151.6,150.5 151.7,150.6 151.8,150.6 152.6,151.7 152.6,151.7 153.9,152.9 154.9,153.1 156.8,152.9 157,152.8 
		157.1,152.8 157.8,152.3 157.9,152.3 158.1,152.3 158.1,152.4 165.5,149.7 165.7,149.4 173.6,146.1 188.4,136.8 189.7,132.9 
		191.7,132.8 193.8,131.1 200.6,132.2 202.7,131.2 203.5,130.3 203.4,130.3 205.6,126.3 205.6,126.2 205.9,125.4 205.9,125.1 
		206,124.7 206,124.4 205.9,124.1 205.8,123.8 205.7,123.4 205.7,123.4 205.7,123.4 205.6,123.1 205.5,122.8 205.7,122.5 206,122.3 
		206,122.3 206,122.2 206.1,122.2 206.1,122.1 206.2,122 206.3,121.9 206.3,121.8 206.4,121.6 206.4,121.6 206.5,121.6 210.5,122.7 
		214.3,121.2 215.3,119.6 219.4,118.8 221.7,120.8 222.1,120.9 222.1,120.9 236.8,129.5 236.9,129.5 246.6,144.6 249.9,146.1 
		250.8,148 253,149.2 253.8,149.2 254.8,150.4 254.8,154.9 254.9,154.9 255.8,160.4 261.1,163.7 262.1,166 264.3,167.2 265.6,170.6 
		268.5,172.6 275.3,190.8 282.2,191.7 283.2,191.3 283.2,191.4 286.3,189.7 291.1,192 291.2,191.9 291.6,191.9 292.4,195.2 
		292.2,195.2 292.9,197.2 292,199.6 292.8,201.8 295.1,203.2 295.9,205.6 295.9,205.6 295.8,206.4 295.6,206.5 294.6,208.8 
		296,214.7 296,214.8 296.7,217.3 296.8,217.3 298.3,235.3 295.1,241.1 295.1,241.2 295.1,241.3 295.1,241.4 295.1,241.4 
		295.1,241.4 295.1,241.5 295.1,241.5 295,241.6 295,241.6 295,242.4 295.2,245.7 295,245.9 293.7,248.3 293.7,248.6 290.3,248.6 
		288.5,250.3 288.2,258.1 288.9,259.4 288.7,262.6 289.6,264 289.7,264.1 289.2,265.5 289.3,265.5 288,278.7 289.4,281.6 
		289.4,281.6 289.6,281.9 289.6,282 294,288.1 294.1,289.3 293.3,292.1 293.5,293.4 292.7,297.8 293.1,300.6 295.9,304.2 
		295.9,304.3 296.5,305.3 296.5,305.3 304.7,318.1 305.2,320.6 309.3,325.4 309.4,326.5 310.2,328.4 311,330.4 311.2,331.1 
		311.3,331.9 311.3,332 311.3,332.2 311.4,332.4 311.4,332.5 311.8,333.1 312.1,333.7 312.1,333.8 312.1,333.9 312.2,334 312.2,334 
		312.5,335.1 312.9,336.3 313.1,336.7 313.4,337.2 313.4,337.2 313.4,337.2 318.2,345.5 323,353.7 323.1,354.2 323.2,354.6 
		323.2,354.7 323.2,354.8 323.2,354.8 323.2,354.8 323.4,355.2 323.6,355.6 323.8,355.9 324,356.1 324.1,356.9 324.2,357.7 
		324.2,357.7 324.1,357.8 324.1,357.8 324.1,357.8 324.2,358.3 324.3,358.7 324.3,358.7 324.3,358.8 324.2,359 324.1,359.3 
		323.8,363.1 325.8,366.6 325.9,366.6 329.8,377.9 333.4,380.1 333.4,380.1 336.8,384.1 339.3,385 342.1,384.2 342.1,384.1 
		345.9,383 346.6,383.4 346.7,383.4 348.3,384.7 357.2,413.6 356.8,415.1 357.4,417.2 358.2,418 359.1,420.8 359.1,420.8 
		364.4,428.3 368.5,428.2 370,427.2 370.9,425.6 374.5,427.4 374.7,427.4 378,430 378.4,430.1 378.8,430.1 378.9,430.2 378.9,430.3 
		379.1,430.4 379.2,430.5 379.5,430.6 379.7,430.7 379.9,430.7 380.1,430.8 380.1,430.8 380.1,430.9 380.6,431.9 381,432.9 
		393.8,451.4 394,451.4 410.3,493.1 414.5,493.9 415.5,493.2 416.3,494 416.1,494.5 409,497.6 409,497.4 404.7,498.9 404.3,498.5 
		404.3,498.5 403.2,497.8 403.2,497.8 370,498 370,498 367.1,500.1 367.1,500.1 341.8,511.9 341.2,511.6 341.2,511.5 334.6,509.6 
		329.5,513.5 329.2,516.4 332,519.5 331.9,519.5 339.1,517.9 340.1,519.6 340.1,519.6 345.2,521.7 344.7,523.6 346.2,526.4 
		357.3,524 357.2,520.1 357.1,520.1 357.1,520.1 357.1,520 358.5,520 359.5,523.8 360.5,524.5 374.4,519.8 374.4,519.8 374.6,519.8 
		374.4,516 386.8,513.8 386.9,513.7 395.5,510.5 395.6,510.4 399.4,509.1 399.4,509.2 399.4,509.2 399.5,509.2 399.5,509.3 
		409,507.6 409,507.7 445.9,483.8 445.8,483.8 453.5,474.8 453.6,474.8 453.6,474.7 453.5,474.7 454.7,472.1 457.5,471.2 
		458.9,466.5 458.2,465.4 459.8,462.5 463,462.3 466.8,455.8 464.7,452.4 465.8,448.6 465.6,448.2 466,447.7 466,447.7 466.4,444.7 
		469.6,444.3 471.1,441.3 469.9,438.7 467.1,437.8 468,432.1 467.9,431.9 467.9,431.7 468.2,431.5 468.5,431.2 468.8,430.6 
		469,430.1 469.1,429.9 469.1,429.7 469.3,429.5 469.4,429.2 469.7,427.9 470,426.5 470,425.1 470,423.7 470.1,423.5 470.1,423.4 
		469.7,421.1 469.3,418.7 470.1,411.9 470.9,405.1 470.9,405.1 471,405.1 472.3,390.7 473.6,376.2 474.7,360.4 474.7,360.4 
		474.7,360.4 474.7,360.4 474.7,360.4 474.7,360.4 474.7,360.4 474.7,360.4 474.7,360.4 474.7,360.4 474.7,360.4 474.7,360.4 
		474.7,360.4 474.7,360.4 474.7,360.4 474.7,360.4 474.7,360.4 474.7,360.4 474.7,360.4 474.7,360.4 474.7,360.4 474.7,360.4 
		474.7,360.4 474.7,360.4 474.7,360.4 	"/>
</g>
</svg>
