<?xml version="1.0" encoding="utf-8"?>
<!-- Generator: Adobe Illustrator 20.0.0, SVG Export Plug-In . SVG Version: 6.00 Build 0)  -->
<svg version="1.1" id="Layer_1" xmlns="http://www.w3.org/2000/svg" xmlns:xlink="http://www.w3.org/1999/xlink" x="0px" y="0px"
	 viewBox="0 0 473 567.6" style="enable-background:new 0 0 473 567.6;" xml:space="preserve">
<style type="text/css">
	.st0{fill:#73BFE2;}
</style>
<g>
	<polyline class="st0" points="367.9,430.1 367.9,430 367.4,430 367.4,429.9 367.4,429.9 367.4,429.8 366.6,429.6 364.7,430.6 
		362.4,431.1 361.5,433.8 361.5,433.9 361.9,434.7 361.7,434.8 361.9,436.5 361.7,436.5 361.5,436.6 360.3,434.3 358,433.3 
		357.5,433.7 357,433.6 356.9,433.7 357.2,434.4 356.5,435 357.2,436.2 357.2,436.2 358,435.8 358.5,436.6 358.2,438.1 358,438.1 
		358,438 357.9,438 357.5,437 355.7,435.8 354.9,438 354.9,438.1 354.9,438.2 354.9,438.4 355.5,439.3 355.7,440.3 355.5,440.5 
		355.5,440.7 355.4,440.8 355.7,441.1 355.5,441.2 355.4,441.2 355.3,441.3 355.3,441.4 355.2,441.3 355.2,441.2 355,441.1 
		354.9,441.1 354.4,440.1 354.6,439.9 354.1,439.2 353.9,439.4 353.3,438.3 352.7,438.2 352.6,437.9 352.9,437.8 352.5,437.4 
		352.3,436.9 352,437 351.8,434.7 351.9,434.7 351.9,434.3 352.8,435.1 353.3,434.5 353.7,436 353.5,433.4 355.4,429.8 355.9,429.6 
		355.9,429.6 356.1,429.5 356.2,428.7 356.7,429.2 359,426.7 358.8,427.7 361.4,421.8 356.9,414.8 371.6,405.7 367.4,399.1 
		368.1,387.5 368.2,387.4 370.5,338.6 370,338.6 383,282.7 382.3,282.7 381.4,278.2 381.8,277.2 381.6,275.6 381.8,275.6 
		382.1,275.6 383.1,220.8 383,220.7 383.4,219.4 380.3,215.9 380.4,215.4 380.1,215.4 379.9,212.3 379.8,212.3 379.8,212.2 
		379.5,212.1 379.3,212.3 377.5,212.2 377.2,212.5 375.6,212.5 375.5,214.5 375.2,214.5 375.2,215 374.9,215 375.2,216.1 
		374.6,216.5 374.6,216.8 374.4,216.8 374.4,216.9 372.5,215.7 373.1,212.6 372.5,211.6 374.4,206.4 374.4,206.4 376.8,200.7 
		374.4,196.7 375.5,194.6 372.5,179.8 372.4,179.8 372.1,179.4 372.1,179.3 371.5,179 373.8,168.9 374.4,166.9 376,164.7 
		377.9,162.7 377.5,154.8 377.5,154.7 377.5,140.2 376.6,138.4 374,135.1 374.4,134.8 374.4,134.6 374.4,134.4 374.5,129.2 
		374.6,129.3 375.2,126.6 374.9,126.4 375.9,120.4 376.5,119.6 376.6,118 374.3,115.3 374,115.2 375.9,101.3 301.2,102.7 
		282.4,104.3 281.8,105.9 275.9,109 275.3,108.8 274.3,109.3 274,110.8 264.4,115.5 264.8,116.3 262.9,117.9 262.3,117.6 
		259.3,120.5 258.3,120.6 229.4,152.6 229,152.5 226.1,154.5 225.9,154.4 225.8,154.4 225.8,154.3 224.3,154.1 217,158.3 216.8,158 
		215,159.3 214.8,162.6 206.2,165.6 203.7,170.8 203.6,170.8 204,171.6 206.2,179.4 206.6,180.2 206.5,180.9 206.7,180.9 
		207.2,180.7 208.6,182.1 207.5,184.6 207.6,184.9 208.1,184.9 208.7,184.2 209.1,184.4 211.2,182 211.2,181.5 212.4,179.7 
		212.4,179.4 212.2,179.3 207.9,180.3 207.7,180.2 209.7,176.6 209.9,176.8 212.4,175.4 212.5,175.5 211.6,177 212.2,177.4 
		213.1,177 213.3,177.1 214.2,176.6 217,179.3 211.9,183.1 216,184.7 219,182.3 219,182.2 219.4,182.2 219.7,182.8 220.3,182.9 
		220.4,183 220.4,184 219.8,184.3 219.6,184.2 219.6,183.8 219.1,183.7 216.9,185.9 216.8,185.8 216.5,185.9 215.7,186.5 
		216.1,190.4 214.8,190.5 214.1,191.1 214,191.3 212,192.6 212.2,193.1 211.9,193.5 211.7,193.5 211.7,193.3 211.5,193.1 211.2,193 
		211.2,192.7 210.6,192.5 210.1,192.7 210,192.7 211.5,190 211.4,189.7 206.5,193.1 206.3,194.5 206.7,194.6 207.5,194.4 
		207.9,194.6 208.2,194.6 208.3,194.8 207.9,195.4 209.5,196.1 209.2,196.2 210,195.9 210.5,218.3 207.1,220.1 207,220.1 
		205.5,220.7 205.2,220.4 204,220.7 203.7,220.4 203.1,220.5 201.7,219.5 200.9,219.7 200.9,219.5 197.2,221 197.1,221.2 197,221.2 
		191.3,225 191.3,225.1 190.3,225.5 190.3,225.4 188,227.5 187.6,227.5 187.1,227.8 187.1,227.9 186.6,228.3 186.4,228.2 186,228.6 
		186,228.6 182.3,233.6 169.2,238 168.9,237.9 167.2,239.1 162,238.9 156.2,237.4 156.2,237.2 141.8,237.8 133.5,240.8 123,233.8 
		123.1,233.5 57.6,230.8 57.6,230.7 43.7,234.5 44.4,235.3 44.2,241.7 44.3,241.8 44.8,244.2 43.1,245.9 43.7,246.6 42.5,249 
		42.6,249.3 46.5,250.5 46.8,251.3 45.3,254.5 45.9,256.9 48.7,259.3 50.4,259.5 52.7,265.9 52.6,266 53.5,268.1 53.9,268.1 
		54.2,268.9 54.1,269.2 54.2,269.4 53.6,269.5 53.6,269.7 53.5,269.7 53.5,270 53.4,270.1 54.3,273.6 53.4,274.6 53.4,274.7 
		47.3,278.3 47.2,278.6 43.7,280.1 43.6,280 42.5,280.4 40.7,284.5 40.5,284.4 39.8,285.3 39.5,285.2 37.1,288.2 36.5,290.4 
		36.3,290.4 36.3,290.5 35.6,291.2 35.2,291.1 35.2,291 34.3,291.4 34.1,291.1 31.2,292.3 31.1,292 26.2,294.6 26.2,294.5 
		24.6,295.6 24.2,295.6 24.1,295.3 23.7,295.4 23.5,295.1 20.1,298.4 19.9,298.4 19.7,298.2 19.6,298.2 18.7,300.3 8.7,306.5 
		8.5,306.4 8.5,306.4 7.8,306.8 7.8,306.9 -1.6,311.7 -3,333.4 189.1,341.5 189.3,341.6 260.3,343.3 260.4,344 260.2,344.9 
		261.5,345.9 262.6,346.9 262.5,346.5 263,346.3 264.8,353.5 269.4,354.1 270,353 275.8,359.2 275.2,359.1 274.4,361.4 276.8,361.7 
		277.3,366 276.4,365.9 276.3,366.3 277.4,368.6 276.8,369.1 277,369.4 277.2,369.5 277.8,373.5 276.7,373.6 276.8,374.1 
		275.9,374.3 279.3,379.5 278.9,379.8 280.1,382.3 281,382.3 281.3,384.3 286.9,386.6 286.5,387.8 291.9,387.6 292.9,389.3 
		295.8,388.5 295.8,390.1 299,394.1 298.5,394.5 325.8,411.3 325.8,411.3 347,423.2 345.6,429.6 345.5,429.6 342.8,437.1 
		342.7,437.1 340.8,440.6 340.8,440.6 339.2,446.3 339.6,446.5 339.6,446.9 339.8,447 339.8,447.1 340.3,446.9 340.3,446.8 
		340.4,446.8 340.8,446.9 340.3,448.1 340.2,448.1 339.8,448.4 339.7,448.4 339.4,448.7 339.6,450.3 338.3,452.3 338.3,452.6 
		338.2,452.7 338.2,453 338.1,453.1 338.2,453.2 338.2,453.6 338.3,453.8 338.3,454 338.8,454.7 339.1,454.7 339.1,454.7 
		339.6,454.8 339.6,454.9 339.8,454.9 339.8,455 340.1,455 340.1,455 340.6,455.4 340.6,455.5 340.7,455.7 340.7,456.5 339.9,456.8 
		340,457.1 340.6,457.4 344.9,456.9 344.3,459.6 355.7,455.7 355.7,456.2 366.9,456.2 366.7,456.6 381.6,452 382.6,452.9 
		416.1,440.9 416.3,441 428.7,436.2 428.7,436.2 466.4,417.7 466.6,417.8 469,416.5 469.1,416.1 469.4,416 470,415.1 469.9,414.7 
		469.9,414.7 469.9,414.7 469.9,414.7 469.9,414.7 469.9,414.7 469.9,414.7 469.9,414.7 469.9,414.7 469.9,414.7 469.9,414.7 
		469.9,414.7 469.9,414.7 469.9,414.7 469.9,414.7 469.9,414.7 469.5,414.6 468,414.7 467.4,414.3 467.3,413.9 467.1,413.9 
		463.8,415.1 463.9,417 463.1,417.6 462.6,417.3 462.5,417 461.9,417 460.4,419.1 458.9,419.4 458.5,419.2 458.1,419.3 458.1,419.6 
		457.8,419.6 457.7,420.2 456.9,420.3 456.5,421.4 455.7,421.8 454.9,421.6 454.5,421.1 454.4,421.1 451.7,416.9 449.9,418.6 
		445.7,418 444.3,415.9 444.7,415.2 444.6,415.1 442.1,414.3 441.9,413.4 440.9,412.9 440.8,412.3 441.4,410.8 442,410.5 442,410.3 
		442.6,410.2 444,411.3 443.2,412.4 447.1,408.4 446.7,408.5 446.3,408.4 444.9,409 444.3,408.7 442.6,409.6 442.3,409.6 
		441.9,410.2 439.8,410.3 438.9,412 438.5,412 436.1,414.6 434.4,414.7 429.9,418.6 429.9,418.7 427.7,420.6 427.6,420.6 
		427.6,420.6 427.2,421 427.2,421 398.4,425.2 398.4,425.3 395.5,424.6 395.4,424.8 395.4,424.9 394.4,424.7 393.9,424.2 
		392.7,425.1 391.4,425 391.7,425.6 392.1,425.7 392.1,425.8 392.4,426 392.1,428.2 387.3,430 381.1,428.2 380.3,428.4 380.3,428.6 
		377.3,426.3 376.9,426.3 376.8,426.4 376.4,429.4 376.6,429.5 377,428.4 377.5,428.9 377.5,428.6 378.3,428.7 378.3,428.3 
		379.8,428.8 379.6,429.6 379.5,429.8 379.4,429.8 378.9,430.1 378.4,429.6 378.4,429.6 378.1,430.5 377.1,430 376,430.4 374.8,430 
		375.1,428.3 371.7,427 371.3,427.4 371,428.9 372.1,430.8 372.4,430.9 372.6,432.7 373,433.1 373,433.3 372.8,433.5 371.4,432.2 
		371.5,432 371.3,431.2 370.4,431.3 370.4,431.5 370.2,431.7 370.5,433 370.5,433 370.3,432.7 369.5,432.9 369.2,432.5 368.4,432.7 
		368,430.5 	"/>
</g>
</svg>
