<?xml version="1.0" encoding="utf-8"?>
<!-- Generator: Adobe Illustrator 20.0.0, SVG Export Plug-In . SVG Version: 6.00 Build 0)  -->
<svg version="1.1" id="Layer_1" xmlns="http://www.w3.org/2000/svg" xmlns:xlink="http://www.w3.org/1999/xlink" x="0px" y="0px"
	 viewBox="0 0 600 720" style="enable-background:new 0 0 600 720;" xml:space="preserve">
<style type="text/css">
	.st0{fill:#73BFE2;}
</style>
<g>
	<polyline class="st0" points="465.8,544.6 465.8,544.5 465.2,544.4 465.2,544.3 465.1,544.3 465.1,544.2 464.1,543.9 461.8,545.2 
		458.9,545.9 457.7,549.2 457.8,549.3 458.2,550.3 458,550.5 458.2,552.6 458,552.6 457.8,552.7 456.2,549.9 453.3,548.6 
		452.7,549.1 452.1,549 452,549.1 452.4,550 451.5,550.7 452.3,552.3 452.3,552.3 453.3,551.8 454,552.7 453.6,554.6 453.4,554.6 
		453.3,554.5 453.2,554.5 452.7,553.3 450.4,551.8 449.4,554.5 449.4,554.6 449.5,554.8 449.5,555 450.2,556.1 450.5,557.4 
		450.2,557.7 450.2,557.9 450.1,558 450.4,558.4 450.2,558.5 450.1,558.5 450,558.7 450,558.8 449.8,558.6 449.8,558.5 449.6,558.4 
		449.5,558.4 448.8,557.1 449.1,556.9 448.5,556 448.2,556.2 447.5,554.9 446.7,554.7 446.6,554.4 447,554.2 446.4,553.8 
		446.2,553.1 445.8,553.2 445.5,550.3 445.7,550.3 445.7,549.8 446.8,550.9 447.4,550.1 448,552 447.7,548.7 450.1,544.2 450.7,544 
		450.7,543.9 451,543.8 451.1,542.8 451.7,543.4 454.6,540.3 454.4,541.6 457.6,534.2 452,525.4 470.4,514 465.2,505.7 466,491.1 
		466.2,491 469.1,429.7 468.4,429.7 484.7,359.5 483.9,359.5 482.7,353.8 483.3,352.6 483,350.6 483.2,350.6 483.6,350.6 
		484.9,281.7 484.8,281.6 485.3,280 481.3,275.6 481.5,275 481.1,274.9 480.8,271.1 480.7,271.1 480.7,270.9 480.3,270.8 
		480.1,271.1 477.8,270.9 477.5,271.3 475.5,271.3 475.3,273.8 475,273.8 475,274.5 474.6,274.5 475,275.8 474.2,276.3 474.2,276.7 
		474,276.7 474,276.9 471.5,275.3 472.3,271.5 471.5,270.2 473.9,263.7 474,263.7 477,256.5 473.9,251.5 475.3,248.8 471.6,230.2 
		471.4,230.2 471,229.7 471,229.6 470.3,229.2 473.2,216.6 474,214 476,211.3 478.3,208.8 477.9,198.8 477.8,198.7 477.9,180.5 
		476.7,178.2 473.5,174.1 473.9,173.7 473.9,173.5 474,173.3 474.1,166.7 474.2,166.8 475,163.4 474.6,163.2 475.8,155.6 
		476.6,154.7 476.7,152.7 473.8,149.2 473.4,149.1 475.8,131.7 382,133.4 358.4,135.5 357.6,137.4 350.3,141.3 349.5,141.1 
		348.3,141.7 347.8,143.6 335.8,149.5 336.3,150.5 333.9,152.5 333.2,152.2 329.4,155.8 328.2,155.9 291.8,196.1 291.3,196 
		287.7,198.5 287.4,198.4 287.3,198.3 287.3,198.2 285.4,198 276.3,203.2 276,202.9 273.8,204.5 273.5,208.6 262.7,212.4 
		259.6,218.9 259.4,219 260,219.9 262.7,229.8 263.2,230.8 263.1,231.6 263.4,231.6 264,231.4 265.7,233.1 264.3,236.3 264.5,236.6 
		265.1,236.6 265.9,235.8 266.4,236 269,233 269,232.4 270.5,230.1 270.5,229.8 270.3,229.6 264.8,230.9 264.6,230.8 267.1,226.2 
		267.4,226.5 270.5,224.7 270.6,224.8 269.5,226.7 270.2,227.2 271.4,226.7 271.6,226.8 272.7,226.2 276.3,229.6 269.9,234.4 
		275,236.4 278.8,233.4 278.8,233.3 279.3,233.3 279.7,234 280.4,234.1 280.6,234.3 280.6,235.5 279.8,235.9 279.6,235.8 
		279.5,235.3 278.9,235.2 276.2,237.9 276,237.8 275.6,237.9 274.7,238.7 275.1,243.6 273.5,243.7 272.6,244.4 272.5,244.7 
		270,246.3 270.2,247 269.9,247.5 269.6,247.5 269.6,247.2 269.4,246.9 269,246.8 269,246.5 268.3,246.2 267.6,246.5 267.5,246.4 
		269.4,243.1 269.3,242.7 263.1,247 262.9,248.7 263.4,248.9 264.4,248.6 264.9,248.9 265.2,248.8 265.3,249.1 264.9,249.8 
		266.8,250.7 266.5,250.9 267.5,250.5 268.1,278.6 263.9,280.9 263.7,280.8 261.8,281.6 261.4,281.3 259.9,281.6 259.6,281.3 
		258.8,281.4 257.1,280.1 256.1,280.3 256.1,280.1 251.4,282 251.3,282.3 251.2,282.2 244,287 244,287.1 242.8,287.6 242.7,287.5 
		239.9,290.1 239.4,290.1 238.7,290.5 238.7,290.6 238.1,291.1 237.8,291 237.4,291.5 237.3,291.5 232.7,297.8 216.2,303.3 
		215.9,303.2 213.8,304.7 207.2,304.5 199.9,302.6 199.9,302.3 181.8,303.1 171.4,306.8 158.2,298.1 158.3,297.7 76.1,294.3 
		76.1,294.2 58.6,299 59.5,299.9 59.3,308 59.4,308.1 60,311.1 57.9,313.3 58.6,314.1 57.2,317.2 57.3,317.5 62.2,319.1 62.6,320.1 
		60.7,324 61.4,327.1 64.9,330.1 67,330.4 69.9,338.4 69.8,338.5 71,341.1 71.4,341.1 71.8,342.2 71.7,342.5 71.8,342.8 71.1,342.9 
		71.1,343.1 71,343.2 71,343.5 70.8,343.6 72,348 70.8,349.3 70.8,349.4 63.2,353.9 63.1,354.3 58.7,356.2 58.5,356.1 57.2,356.6 
		54.9,361.7 54.6,361.6 53.7,362.7 53.4,362.6 50.4,366.4 49.6,369.1 49.4,369.2 49.4,369.3 48.5,370.2 48,370 48,369.9 46.8,370.4 
		46.6,370 42.9,371.5 42.8,371.2 36.7,374.4 36.7,374.3 34.6,375.7 34.2,375.7 34,375.3 33.5,375.4 33.3,375.1 29,379.2 28.8,379.2 
		28.5,378.9 28.4,378.9 27.2,381.6 14.7,389.4 14.4,389.3 14.4,389.2 13.6,389.8 13.6,389.9 1.7,395.9 0,423.2 241.3,433.3 
		241.5,433.4 330.6,435.6 330.8,436.4 330.5,437.6 332.1,438.8 333.6,440.1 333.4,439.6 334,439.4 336.3,448.4 342.1,449.1 
		342.8,447.8 350.1,455.5 349.4,455.4 348.4,458.3 351.4,458.7 352,464.1 350.9,463.9 350.8,464.4 352.1,467.3 351.4,468 
		351.6,468.4 351.9,468.5 352.6,473.5 351.3,473.6 351.4,474.2 350.2,474.5 354.5,481.1 354,481.4 355.5,484.6 356.7,484.5 
		357,487.1 364.1,489.9 363.6,491.5 370.3,491.2 371.6,493.3 375.3,492.4 375.3,494.4 379.2,499.4 378.6,499.9 412.9,521 412.9,521 
		439.5,535.9 437.8,544 437.6,544 434.2,553.4 434.1,553.4 431.8,557.8 431.7,557.8 429.7,564.9 430.2,565.2 430.3,565.7 
		430.5,565.8 430.5,565.9 431.1,565.7 431.1,565.6 431.3,565.5 431.7,565.7 431.1,567.2 431,567.2 430.5,567.6 430.4,567.6 430,568 
		430.3,570 428.6,572.5 428.6,572.8 428.5,573 428.5,573.4 428.4,573.5 428.5,573.6 428.5,574.1 428.6,574.3 428.6,574.6 
		429.2,575.5 429.6,575.5 429.6,575.5 430.2,575.6 430.2,575.7 430.5,575.7 430.5,575.8 430.9,575.8 430.9,575.9 431.5,576.4 
		431.5,576.5 431.6,576.7 431.6,577.7 430.6,578.1 430.8,578.5 431.5,578.9 436.9,578.3 436.2,581.6 450.4,576.7 450.4,577.4 
		464.5,577.3 464.3,577.9 483,572.1 484.2,573.2 526.3,558.2 526.6,558.3 542.1,552.3 542.1,552.2 589.5,529 589.7,529.1 
		592.7,527.5 592.9,527 593.2,526.9 594,525.7 593.9,525.3 593.9,525.3 593.9,525.3 593.9,525.3 593.9,525.3 593.9,525.3 
		593.9,525.3 593.9,525.3 593.9,525.3 593.9,525.3 593.9,525.3 593.9,525.3 593.9,525.3 593.9,525.3 593.9,525.3 593.9,525.3 
		593.4,525.1 591.5,525.2 590.7,524.7 590.6,524.3 590.3,524.2 586.2,525.8 586.4,528.1 585.3,528.9 584.7,528.5 584.6,528.1 
		583.8,528.1 582,530.8 580,531.1 579.6,530.9 579,531 579,531.4 578.7,531.4 578.5,532.1 577.5,532.3 577,533.6 576.1,534.1 
		575,533.9 574.5,533.3 574.4,533.3 571,528 568.7,530.2 563.5,529.4 561.7,526.7 562.2,525.9 562.1,525.7 559,524.8 558.7,523.6 
		557.5,523 557.3,522.2 558.1,520.4 558.8,520 558.8,519.7 559.6,519.6 561.3,521 560.3,522.4 565.3,517.3 564.8,517.5 564.3,517.3 
		562.5,518.1 561.7,517.7 559.6,518.9 559.2,518.8 558.7,519.6 556.1,519.7 554.9,521.8 554.4,521.9 551.4,525.1 549.3,525.3 
		543.6,530.2 543.6,530.3 540.9,532.7 540.8,532.7 540.7,532.6 540.3,533.1 540.3,533.2 504.1,538.4 504.1,538.5 500.4,537.7 
		500.3,537.9 500.3,538.1 499,537.8 498.4,537.2 496.9,538.3 495.3,538.2 495.7,538.9 496.2,539.1 496.2,539.2 496.5,539.4 
		496.2,542.2 490.2,544.5 482.3,542.2 481.4,542.5 481.3,542.7 477.6,539.8 477.1,539.8 477,539.9 476.5,543.7 476.7,543.8 
		477.2,542.5 477.9,543.1 477.9,542.7 478.8,542.8 478.9,542.3 480.7,542.9 480.5,544 480.3,544.2 480.2,544.2 479.6,544.6 479,544 
		479,543.9 478.6,545.1 477.3,544.4 475.9,544.9 474.5,544.4 474.8,542.3 470.6,540.7 470.1,541.2 469.7,543.1 471,545.4 
		471.4,545.6 471.7,547.9 472.2,548.3 472.2,548.6 471.9,548.8 470.2,547.2 470.3,547 470,546 468.9,546.1 468.9,546.3 468.7,546.6 
		469.1,548.2 469,548.2 468.8,547.9 467.8,548.1 467.4,547.6 466.4,547.8 465.9,545.1 	"/>
</g>
</svg>
